<svg xmlns="http://www.w3.org/2000/svg" xmlns:v="https://svgstorm.com"
viewBox = "0 0 512 512"
width="512"
height="512">
<g fill="None" fill-opacity="0.0" stroke="#000000" stroke-opacity="0.01" stroke-width="0.3"><path d="
M 0.00 512.00 
L 41.00 512.00
C 29.59 505.28 34.14 487.43 34.00 475.00 C 33.86 462.57 33.01 441.83 34.00 430.00 C 34.99 418.17 27.92 395.60 42.01 393.01 C 56.10 390.42 72.42 394.17 87.00 393.00 C 101.58 391.83 117.19 393.55 132.00 393.00 C 146.81 392.45 162.10 393.29 177.00 393.00 C 191.90 392.72 207.08 393.21 222.00 393.00
C 222.00 387.00 222.00 381.00 222.00 375.00
C 213.33 375.00 204.67 375.00 196.00 375.00
C 195.68 357.81 196.43 335.70 196.00 319.00 C 195.57 302.30 200.51 279.69 187.30 270.70 C 174.09 261.70 166.44 255.01 154.30 246.70 C 142.17 238.39 133.12 230.53 121.30 222.70 C 109.49 214.86 99.87 205.66 86.92 200.08 C 73.97 194.50 64.87 182.13 66.00 170.00 C 67.13 157.86 71.75 151.89 82.25 146.81 C 92.76 141.73 104.69 146.02 112.75 151.39 C 120.82 156.77 128.63 161.85 136.92 166.13 C 145.20 170.41 151.60 174.45 160.30 179.71 C 169.01 184.98 185.61 193.44 196.00 199.00
C 196.73 184.80 195.02 170.16 196.00 156.00 C 196.98 141.84 194.13 127.00 196.00 113.00 C 197.87 99.00 191.64 93.09 182.90 87.10 C 174.16 81.11 170.79 76.10 162.00 70.00
C 162.00 81.67 162.00 93.33 162.00 105.00
C 188.41 112.32 180.17 153.59 152.99 153.01 C 125.81 152.42 118.73 115.86 143.00 104.00
C 146.64 97.10 143.31 86.28 144.00 78.00 C 144.69 69.72 143.77 58.78 145.00 51.00
C 145.22 40.04 163.11 39.76 171.25 35.20 C 179.39 30.64 192.10 27.97 201.25 23.81 C 210.40 19.65 221.64 16.08 231.25 12.20 C 240.86 8.32 251.61 4.48 262.00 0.00
L 0.00 0.00
L 0.00 512.00
M 103.00 51.00 
C 106.58 53.51 115.42 48.49 119.00 51.00
C 121.25 52.58 120.81 67.26 119.00 69.00
C 113.76 69.47 108.26 69.00 103.00 69.00
C 103.32 72.60 104.38 82.62 102.00 85.00
C 99.52 87.48 88.70 86.33 85.00 86.00
C 82.51 83.61 83.67 72.63 84.00 69.00
C 78.74 69.00 73.24 69.47 68.00 69.00
C 66.12 67.20 65.81 52.53 68.00 51.00
C 71.58 48.49 80.42 53.51 84.00 51.00
C 85.73 47.04 81.25 36.62 85.00 34.00
C 86.28 33.10 100.72 33.10 102.00 34.00
C 105.75 36.63 101.26 47.09 103.00 51.00
M 34.00 157.00 
C 31.33 159.36 21.02 153.86 19.00 150.00
C 15.32 142.98 33.74 130.84 34.00 123.00
C 40.11 123.94 44.30 129.71 50.00 132.00
C 45.71 140.75 39.17 148.59 34.00 157.00
M 91.00 241.00 
C 91.20 241.40 91.00 242.00 91.00 242.00
C 88.65 246.81 82.47 249.32 80.00 254.00
C 73.54 249.95 65.00 241.55 62.00 236.00
C 62.84 232.94 71.16 225.18 74.00 224.00
C 78.69 225.95 88.81 236.51 91.00 241.00
M 149.00 285.00 
C 152.32 287.28 158.45 292.27 160.00 296.00
C 158.45 299.70 144.35 313.65 142.00 313.00
C 138.94 312.16 131.18 303.84 130.00 301.00
C 131.83 296.60 142.67 285.81 147.00 284.00
C 147.88 283.07 148.68 284.78 149.00 285.00 Z"/>
</g>
<g fill="None" fill-opacity="0.0" stroke="#000000" stroke-opacity="1.00" stroke-width="0.3"><path d="
M 145.00 51.00 
C 144.83 59.43 145.61 70.88 145.00 79.00 C 144.39 87.12 147.31 100.26 143.00 104.00
C 118.73 115.86 125.81 152.42 152.99 153.01 C 180.17 153.59 188.41 112.32 162.00 105.00
C 162.00 93.33 162.00 81.67 162.00 70.00
C 170.79 76.10 174.16 81.11 182.90 87.10 C 191.64 93.09 197.87 99.00 196.00 113.00 C 194.13 127.00 196.98 141.84 196.00 156.00 C 195.02 170.16 196.73 184.80 196.00 199.00
C 185.61 193.44 169.01 184.98 160.30 179.71 C 151.60 174.45 145.20 170.41 136.92 166.13 C 128.63 161.85 120.82 156.77 112.75 151.39 C 104.69 146.02 92.76 141.73 82.25 146.81 C 71.75 151.89 67.13 157.86 66.00 170.00 C 64.87 182.13 73.97 194.50 86.92 200.08 C 99.87 205.66 109.49 214.86 121.30 222.70 C 133.12 230.53 142.17 238.39 154.30 246.70 C 166.44 255.01 174.09 261.70 187.30 270.70 C 200.51 279.69 195.57 302.30 196.00 319.00 C 196.43 335.70 195.68 357.81 196.00 375.00
C 204.67 375.00 213.33 375.00 222.00 375.00
C 222.00 381.00 222.00 387.00 222.00 393.00
C 207.08 393.21 191.90 392.72 177.00 393.00 C 162.10 393.29 146.81 392.45 132.00 393.00 C 117.19 393.55 101.58 391.83 87.00 393.00 C 72.42 394.17 56.10 390.42 42.01 393.01 C 27.92 395.60 34.99 418.17 34.00 430.00 C 33.01 441.83 33.86 462.57 34.00 475.00 C 34.14 487.43 29.59 505.28 41.00 512.00
L 487.00 512.00
C 498.54 505.44 493.84 487.45 494.00 475.00 C 494.16 462.55 495.01 441.87 494.00 430.00 C 492.99 418.13 500.25 395.37 485.99 393.01 C 471.73 390.64 455.66 394.07 441.00 393.00 C 426.34 391.93 410.84 393.50 396.00 393.00 C 381.16 392.50 365.92 393.26 351.00 393.00 C 336.08 392.74 320.94 393.20 306.00 393.00
C 306.00 387.00 306.00 381.00 306.00 375.00
C 314.67 375.00 323.33 375.00 332.00 375.00
C 332.32 357.88 331.57 335.61 332.00 319.00 C 332.43 302.39 327.49 279.51 340.75 270.75 C 354.01 261.98 361.78 255.07 373.75 246.75 C 385.71 238.42 394.83 231.23 406.23 223.23 C 417.63 215.23 428.37 206.36 440.70 200.70 C 453.02 195.03 464.16 182.53 463.00 170.00 C 461.84 157.47 455.38 151.42 445.25 146.61 C 435.11 141.80 423.53 146.45 416.23 151.58 C 408.93 156.70 400.63 160.97 392.70 165.71 C 384.76 170.45 376.25 174.01 367.70 179.71 C 359.15 185.41 342.51 193.53 332.00 199.00
C 332.00 165.00 332.00 131.00 332.00 97.00
C 340.65 92.16 349.01 84.95 356.77 77.43 C 364.52 69.91 375.06 65.89 382.08 56.08 C 389.10 46.28 373.37 40.80 366.23 38.42 C 359.09 36.05 349.04 32.24 341.25 29.60 C 333.47 26.96 324.74 21.77 316.30 19.36 C 307.85 16.95 300.21 12.50 291.70 9.29 C 283.18 6.07 274.45 3.84 265.00 0.00
L 262.00 0.00
C 251.61 4.48 240.86 8.32 231.25 12.20 C 221.64 16.08 210.40 19.65 201.25 23.81 C 192.10 27.97 179.39 30.64 171.25 35.20 C 163.11 39.76 145.22 40.04 145.00 51.00
M 358.00 54.00 
C 349.69 61.04 341.24 69.38 332.00 75.00
C 337.29 55.74 326.50 49.46 310.00 51.00 C 293.50 52.54 280.16 50.99 264.00 51.00 C 247.84 51.01 234.37 52.52 218.00 51.00 C 201.63 49.48 190.88 56.14 196.00 75.00
C 187.46 68.28 177.06 61.81 171.00 53.00
C 183.66 48.41 195.84 45.06 208.22 39.22 C 220.61 33.39 233.64 31.62 246.02 25.02 C 258.41 18.43 270.62 18.02 283.07 24.93 C 295.52 31.83 308.17 33.48 320.68 39.32 C 333.18 45.16 345.54 48.22 358.00 54.00
M 315.00 68.00 
C 315.00 73.67 315.00 79.33 315.00 85.00
C 281.00 85.00 247.00 85.00 213.00 85.00
C 213.00 79.33 213.00 73.67 213.00 68.00
C 247.00 68.00 281.00 68.00 315.00 68.00
M 315.00 102.00 
C 315.00 136.33 315.00 170.67 315.00 205.00
C 281.00 205.00 247.00 205.00 213.00 205.00
C 213.00 170.67 213.00 136.33 213.00 102.00
C 247.00 102.00 281.00 102.00 315.00 102.00
M 157.00 120.00 
C 166.61 123.20 160.15 140.74 150.00 136.00 C 139.85 131.26 146.31 116.44 157.00 120.00
M 116.00 173.00 
C 115.08 179.89 109.62 185.30 108.00 192.00
C 100.35 186.60 77.24 182.69 82.99 167.99 C 88.75 153.29 107.48 169.02 116.00 173.00
M 421.00 192.00 
C 418.11 185.59 414.17 179.64 412.00 173.00
C 420.69 169.50 438.89 153.65 444.92 168.08 C 450.95 182.50 428.71 186.07 421.00 192.00
M 196.00 218.00 
C 196.00 230.67 196.00 243.33 196.00 256.00
C 187.73 251.18 181.32 245.02 173.25 239.75 C 165.19 234.47 159.24 228.49 150.75 223.25 C 142.27 218.00 137.64 212.07 128.25 206.75 C 118.85 201.44 126.44 191.53 131.00 183.00
C 153.17 193.38 174.05 207.19 196.00 218.00
M 334.00 255.00 
C 330.83 255.26 331.57 242.90 332.00 238.00 C 332.43 233.10 330.14 221.97 333.00 218.00
C 337.22 212.15 348.36 210.91 354.23 206.23 C 360.10 201.55 368.68 198.58 375.25 194.25 C 381.82 189.91 390.83 185.96 398.00 183.00
C 401.44 190.72 409.71 202.24 400.25 207.25 C 390.79 212.25 386.52 217.96 378.25 223.25 C 369.98 228.53 363.96 233.72 356.25 239.25 C 348.54 244.78 341.65 249.53 334.00 255.00
M 230.00 222.00 
C 230.00 254.33 230.00 286.67 230.00 319.00
C 224.26 316.44 218.97 312.84 213.00 311.00
C 213.00 281.33 213.00 251.67 213.00 222.00
C 218.67 222.00 224.33 222.00 230.00 222.00
M 281.00 222.00 
C 281.38 240.43 280.50 257.43 281.00 276.00 C 281.50 294.57 280.05 312.03 281.00 331.00 C 281.95 349.97 306.00 335.22 315.00 330.00
C 315.00 339.33 315.00 348.67 315.00 358.00
C 281.00 358.00 247.00 358.00 213.00 358.00
C 213.00 348.67 213.00 339.33 213.00 330.00
C 221.72 333.14 245.64 350.70 247.00 332.00 C 248.36 313.29 246.29 295.53 247.00 277.00 C 247.71 258.47 246.47 240.48 247.00 222.00
C 258.33 222.00 269.67 222.00 281.00 222.00
M 315.00 222.00 
C 315.00 251.67 315.00 281.33 315.00 311.00
C 309.06 312.84 303.73 316.45 298.00 319.00
C 298.00 286.67 298.00 254.33 298.00 222.00
C 303.67 222.00 309.33 222.00 315.00 222.00
M 256.00 375.00 
C 256.00 381.00 256.00 387.00 256.00 393.00
C 245.68 392.49 238.01 396.54 238.00 384.00 C 237.99 371.46 245.69 375.53 256.00 375.00
M 290.00 376.00 
C 290.84 377.20 290.84 390.80 290.00 392.00
C 288.59 394.01 274.36 393.95 273.00 392.00
C 272.16 390.80 272.16 377.20 273.00 376.00
C 274.41 373.99 288.64 374.05 290.00 376.00
M 170.00 410.00 
C 173.30 414.72 168.50 425.01 170.00 431.00 C 171.50 436.99 169.31 445.42 170.00 452.00 C 170.69 458.58 169.65 466.10 170.00 473.00 C 170.35 479.90 169.74 487.99 170.00 495.00
C 141.67 495.00 113.33 495.00 85.00 495.00
C 85.00 466.67 85.00 438.33 85.00 410.00
C 87.74 406.09 99.70 409.83 105.00 409.00 C 110.30 408.17 121.18 408.95 127.00 409.00 C 132.82 409.05 143.68 408.03 149.00 409.00 C 154.32 409.97 167.19 405.99 170.00 410.00
M 307.00 410.00 
C 310.30 414.72 305.50 425.01 307.00 431.00 C 308.50 436.99 306.31 445.42 307.00 452.00 C 307.69 458.58 306.65 466.10 307.00 473.00 C 307.35 479.90 306.74 487.99 307.00 495.00
C 301.33 495.00 295.67 495.00 290.00 495.00
C 290.00 466.67 290.00 438.33 290.00 410.00
C 291.41 407.99 305.64 408.05 307.00 410.00
M 443.00 495.00 
C 438.28 498.30 427.99 493.50 422.00 495.00 C 416.01 496.50 407.58 494.31 401.00 495.00 C 394.42 495.69 386.90 494.65 380.00 495.00 C 373.10 495.35 365.01 494.74 358.00 495.00
C 358.00 466.67 358.00 438.33 358.00 410.00
C 360.76 406.05 372.62 409.85 378.00 409.00 C 383.38 408.15 394.02 408.96 400.00 409.00 C 405.98 409.04 416.31 408.04 422.00 409.00 C 427.69 409.96 439.21 406.10 443.22 409.78 C 447.23 413.46 442.99 424.43 444.00 430.00 C 445.01 435.57 443.98 446.06 444.00 452.00 C 444.02 457.94 444.94 468.63 444.00 474.00 C 443.06 479.37 447.01 492.19 443.00 495.00
M 477.00 495.00 
C 475.80 495.84 462.20 495.84 461.00 495.00
C 457.00 492.20 461.07 480.23 460.00 475.00 C 458.93 469.77 460.31 459.84 460.00 454.00 C 459.69 448.16 459.84 437.55 460.00 432.00 C 460.16 426.45 459.18 415.06 460.00 411.00 C 460.82 406.94 476.24 406.45 477.74 410.26 C 479.24 414.06 477.65 426.69 478.00 432.00 C 478.35 437.31 478.30 447.31 478.00 453.00 C 477.70 458.69 479.13 468.81 478.00 474.00 C 476.87 479.19 481.04 492.17 477.00 495.00
M 68.00 410.00 
C 68.00 438.34 68.00 466.66 68.00 495.00
C 62.33 495.00 56.67 495.00 51.00 495.00
C 51.00 466.67 51.00 438.33 51.00 410.00
C 56.67 410.00 62.33 410.00 68.00 410.00
M 273.00 410.00 
C 273.00 438.34 273.00 466.66 273.00 495.00
C 244.33 495.00 215.67 495.00 187.00 495.00
C 187.00 466.67 187.00 438.33 187.00 410.00
C 215.67 410.00 244.33 410.00 273.00 410.00
M 341.00 410.00 
C 341.00 438.34 341.00 466.66 341.00 495.00
C 335.33 495.00 329.67 495.00 324.00 495.00
C 324.00 466.67 324.00 438.33 324.00 410.00
C 329.67 410.00 335.33 410.00 341.00 410.00 Z"/>
</g>
<g fill="None" fill-opacity="0.0" stroke="#000000" stroke-opacity="0.01" stroke-width="0.3"><path d="
M 487.00 512.00 
L 512.00 512.00
L 512.00 0.00
L 265.00 0.00
C 274.45 3.84 283.18 6.07 291.70 9.29 C 300.21 12.50 307.85 16.95 316.30 19.36 C 324.74 21.77 333.47 26.96 341.25 29.60 C 349.04 32.24 359.09 36.05 366.23 38.42 C 373.37 40.80 389.10 46.28 382.08 56.08 C 375.06 65.89 364.52 69.91 356.77 77.43 C 349.01 84.95 340.65 92.16 332.00 97.00
C 332.00 131.00 332.00 165.00 332.00 199.00
C 342.51 193.53 359.15 185.41 367.70 179.71 C 376.25 174.01 384.76 170.45 392.70 165.71 C 400.63 160.97 408.93 156.70 416.23 151.58 C 423.53 146.45 435.11 141.80 445.25 146.61 C 455.38 151.42 461.84 157.47 463.00 170.00 C 464.16 182.53 453.02 195.03 440.70 200.70 C 428.37 206.36 417.63 215.23 406.23 223.23 C 394.83 231.23 385.71 238.42 373.75 246.75 C 361.78 255.07 354.01 261.98 340.75 270.75 C 327.49 279.51 332.43 302.39 332.00 319.00 C 331.57 335.61 332.32 357.88 332.00 375.00
C 323.33 375.00 314.67 375.00 306.00 375.00
C 306.00 381.00 306.00 387.00 306.00 393.00
C 320.94 393.20 336.08 392.74 351.00 393.00 C 365.92 393.26 381.16 392.50 396.00 393.00 C 410.84 393.50 426.34 391.93 441.00 393.00 C 455.66 394.07 471.73 390.64 485.99 393.01 C 500.25 395.37 492.99 418.13 494.00 430.00 C 495.01 441.87 494.16 462.55 494.00 475.00 C 493.84 487.45 498.54 505.44 487.00 512.00
M 478.00 60.00 
C 478.48 65.23 478.00 70.74 478.00 76.00
C 481.68 75.67 492.62 74.52 495.00 77.00
C 495.29 80.19 496.47 92.27 494.00 94.00
C 490.42 96.51 482.02 92.12 478.00 94.00
C 478.00 97.40 479.69 109.12 477.00 111.00
C 475.80 111.84 462.20 111.84 461.00 111.00
C 458.53 109.27 459.72 97.14 460.00 94.00
C 455.98 92.12 447.58 96.51 444.00 94.00
C 441.52 92.27 442.72 80.14 443.00 77.00
C 445.39 74.51 456.37 75.67 460.00 76.00
C 459.99 70.74 459.53 65.23 460.00 60.00
C 462.01 57.91 476.05 57.97 478.00 60.00
M 392.00 104.00 
C 390.85 113.40 386.16 121.83 384.00 131.00
C 378.08 130.28 372.81 127.23 367.00 126.00
C 368.15 116.60 372.84 108.17 375.00 99.00
C 380.78 100.23 386.05 103.27 392.00 104.00
M 494.00 216.00 
C 493.08 222.89 487.62 228.30 486.00 235.00
C 480.05 233.16 474.73 229.55 469.00 227.00
C 472.02 220.97 474.98 215.02 478.00 209.00
C 483.65 210.38 488.33 214.62 494.00 216.00
M 415.00 276.00 
C 414.16 279.06 405.84 286.82 403.00 288.00
C 398.32 286.05 388.19 275.49 386.00 271.00
C 385.80 270.60 386.00 270.00 386.00 270.00
C 387.67 266.58 394.54 259.45 398.00 258.00
C 401.70 259.54 415.64 273.65 415.00 276.00 Z"/>
</g>
<g fill="None" fill-opacity="0.0" stroke="#7B8B9A" stroke-opacity="1.00" stroke-width="0.3"><path d="
M 358.00 54.00 
C 345.54 48.22 333.18 45.16 320.68 39.32 C 308.17 33.48 295.52 31.83 283.07 24.93 C 270.62 18.02 258.41 18.43 246.02 25.02 C 233.64 31.62 220.61 33.39 208.22 39.22 C 195.84 45.06 183.66 48.41 171.00 53.00
C 177.06 61.81 187.46 68.28 196.00 75.00
C 190.88 56.14 201.63 49.48 218.00 51.00 C 234.37 52.52 247.84 51.01 264.00 51.00 C 280.16 50.99 293.50 52.54 310.00 51.00 C 326.50 49.46 337.29 55.74 332.00 75.00
C 341.24 69.38 349.69 61.04 358.00 54.00 Z"/>
</g>
<g fill="None" fill-opacity="0.0" stroke="#224658" stroke-opacity="0.11" stroke-width="0.3"><path d="
M 84.00 51.00 
C 87.75 48.37 83.26 37.91 85.00 34.00
C 81.25 36.62 85.73 47.04 84.00 51.00 Z"/>
</g>
<g fill="None" fill-opacity="0.0" stroke="#000000" stroke-opacity="1.00" stroke-width="0.3"><path d="
M 84.00 51.00 
C 80.42 53.51 71.58 48.49 68.00 51.00
C 68.00 56.67 68.00 62.33 68.00 68.00
C 71.68 67.67 82.62 66.52 85.00 69.00
C 85.47 74.24 85.00 79.74 85.00 85.00
C 90.62 84.49 96.37 85.38 102.00 85.00
C 102.36 79.70 101.52 74.29 102.00 69.00
C 104.39 66.51 115.37 67.67 119.00 68.00
C 119.00 62.33 119.00 56.67 119.00 51.00
C 115.42 48.49 106.58 53.51 103.00 51.00
C 99.25 48.37 103.74 37.91 102.00 34.00
C 100.72 33.10 86.28 33.10 85.00 34.00
C 83.26 37.91 87.75 48.37 84.00 51.00
M 102.00 52.00 
C 104.51 55.58 100.12 63.98 102.00 68.00
C 96.33 68.00 90.67 68.00 85.00 68.00
C 85.00 62.67 85.00 57.33 85.00 52.00
C 86.41 49.99 100.64 50.05 102.00 52.00 Z"/>
</g>
<g fill="None" fill-opacity="0.0" stroke="#3F4480" stroke-opacity="0.02" stroke-width="0.3"><path d="
M 103.00 51.00 
C 101.26 47.09 105.75 36.63 102.00 34.00
C 103.74 37.91 99.25 48.37 103.00 51.00 Z"/>
</g>
<g fill="None" fill-opacity="0.0" stroke="#213B59" stroke-opacity="0.22" stroke-width="0.3"><path d="
M 68.00 69.00 
C 67.96 69.00 68.00 68.00 68.00 68.00
C 68.00 62.33 68.00 56.67 68.00 51.00
C 65.81 52.53 66.12 67.20 68.00 69.00 Z"/>
</g>
<g fill="None" fill-opacity="0.0" stroke="#1F3B57" stroke-opacity="0.32" stroke-width="0.3"><path d="
M 85.00 52.00 
C 90.67 52.00 96.33 52.00 102.00 52.00
C 100.64 50.05 86.41 49.99 85.00 52.00 Z"/>
</g>
<g fill="None" fill-opacity="0.0" stroke="#213C5D" stroke-opacity="0.14" stroke-width="0.3"><path d="
M 119.00 68.00 
C 119.00 68.50 119.00 69.00 119.00 69.00
C 120.81 67.26 121.25 52.58 119.00 51.00
C 119.00 56.67 119.00 62.33 119.00 68.00 Z"/>
</g>
<g fill="None" fill-opacity="0.0" stroke="#30373D" stroke-opacity="0.54" stroke-width="0.3"><path d="
M 143.00 104.00 
C 147.31 100.26 144.39 87.12 145.00 79.00 C 145.61 70.88 144.83 59.43 145.00 51.00
C 143.77 58.78 144.69 69.72 144.00 78.00 C 143.31 86.28 146.64 97.10 143.00 104.00 Z"/>
</g>
<g fill="None" fill-opacity="0.0" stroke="#000000" stroke-opacity="0.00" stroke-width="0.3"><path d="
M 102.00 52.00 
C 96.33 52.00 90.67 52.00 85.00 52.00
C 85.00 57.33 85.00 62.67 85.00 68.00
C 90.67 68.00 96.33 68.00 102.00 68.00
C 100.12 63.98 104.51 55.58 102.00 52.00 Z"/>
</g>
<g fill="None" fill-opacity="0.0" stroke="#1C3451" stroke-opacity="0.47" stroke-width="0.3"><path d="
M 460.00 60.00 
C 460.00 59.96 461.00 60.00 461.00 60.00
C 466.33 60.00 471.67 60.00 477.00 60.00
C 477.50 60.00 478.00 60.00 478.00 60.00
C 476.05 57.97 462.01 57.91 460.00 60.00 Z"/>
</g>
<g fill="None" fill-opacity="0.0" stroke="#152639" stroke-opacity="0.82" stroke-width="0.3"><path d="
M 460.00 76.00 
C 460.00 76.50 460.00 77.00 460.00 77.00
C 460.25 77.25 461.00 77.00 461.00 77.00
C 461.48 71.64 461.49 65.36 461.00 60.00
C 461.00 60.00 460.00 59.96 460.00 60.00
C 459.53 65.23 459.99 70.74 460.00 76.00 Z"/>
</g>
<g fill="None" fill-opacity="0.0" stroke="#000000" stroke-opacity="1.00" stroke-width="0.3"><path d="
M 461.00 77.00 
C 466.33 77.00 471.67 77.00 477.00 77.00
C 477.00 71.41 476.50 65.56 477.00 60.00
C 471.67 60.00 466.33 60.00 461.00 60.00
C 461.49 65.36 461.48 71.64 461.00 77.00 Z"/>
</g>
<g fill="None" fill-opacity="0.0" stroke="#162A41" stroke-opacity="0.75" stroke-width="0.3"><path d="
M 477.00 77.00 
C 477.00 82.33 477.00 87.67 477.00 93.00
C 477.00 93.50 477.00 94.00 477.00 94.00
C 477.00 99.67 477.00 105.33 477.00 111.00
C 479.69 109.12 478.00 97.40 478.00 94.00
C 478.00 88.33 478.00 82.67 478.00 77.00
C 478.00 76.50 478.00 76.00 478.00 76.00
C 478.00 70.74 478.48 65.23 478.00 60.00
C 478.00 60.00 477.50 60.00 477.00 60.00
C 476.50 65.56 477.00 71.41 477.00 77.00 Z"/>
</g>
<g fill="None" fill-opacity="0.0" stroke="#1D3753" stroke-opacity="0.43" stroke-width="0.3"><path d="
M 68.00 69.00 
C 73.24 69.47 78.74 69.00 84.00 69.00
C 84.50 69.00 85.00 69.00 85.00 69.00
C 82.62 66.52 71.68 67.67 68.00 68.00
C 68.00 68.00 67.96 69.00 68.00 69.00 Z"/>
</g>
<g fill="None" fill-opacity="0.0" stroke="#1E3853" stroke-opacity="0.43" stroke-width="0.3"><path d="
M 102.00 69.00 
C 102.00 68.96 103.00 69.00 103.00 69.00
C 108.26 69.00 113.76 69.47 119.00 69.00
C 119.00 69.00 119.00 68.50 119.00 68.00
C 115.37 67.67 104.39 66.51 102.00 69.00 Z"/>
</g>
<g fill="None" fill-opacity="0.0" stroke="#384B5A" stroke-opacity="1.00" stroke-width="0.3"><path d="
M 315.00 68.00 
C 281.00 68.00 247.00 68.00 213.00 68.00
C 213.00 73.67 213.00 79.33 213.00 85.00
C 247.00 85.00 281.00 85.00 315.00 85.00
C 315.00 79.33 315.00 73.67 315.00 68.00 Z"/>
</g>
<g fill="None" fill-opacity="0.0" stroke="#224558" stroke-opacity="0.11" stroke-width="0.3"><path d="
M 85.00 86.00 
C 84.96 86.00 85.00 85.00 85.00 85.00
C 85.00 79.74 85.47 74.24 85.00 69.00
C 85.00 69.00 84.50 69.00 84.00 69.00
C 83.67 72.63 82.51 83.61 85.00 86.00 Z"/>
</g>
<g fill="None" fill-opacity="0.0" stroke="#404080" stroke-opacity="0.02" stroke-width="0.3"><path d="
M 102.00 85.00 
C 104.38 82.62 103.32 72.60 103.00 69.00
C 103.00 69.00 102.00 68.96 102.00 69.00
C 101.52 74.29 102.36 79.70 102.00 85.00 Z"/>
</g>
<g fill="None" fill-opacity="0.0" stroke="#1E3956" stroke-opacity="0.39" stroke-width="0.3"><path d="
M 443.00 77.00 
C 443.00 76.96 444.00 77.00 444.00 77.00
C 449.26 77.00 454.76 77.47 460.00 77.00
C 460.00 77.00 460.00 76.50 460.00 76.00
C 456.37 75.67 445.39 74.51 443.00 77.00 Z"/>
</g>
<g fill="None" fill-opacity="0.0" stroke="#1E3A56" stroke-opacity="0.39" stroke-width="0.3"><path d="
M 478.00 77.00 
C 483.24 77.47 488.74 77.00 494.00 77.00
C 494.50 77.00 495.00 77.00 495.00 77.00
C 492.62 74.52 481.68 75.67 478.00 76.00
C 478.00 76.00 478.00 76.50 478.00 77.00 Z"/>
</g>
<g fill="None" fill-opacity="0.0" stroke="#122233" stroke-opacity="0.87" stroke-width="0.3"><path d="
M 444.00 94.00 
C 443.62 88.37 444.51 82.62 444.00 77.00
C 444.00 77.00 443.00 76.96 443.00 77.00
C 442.72 80.14 441.52 92.27 444.00 94.00 Z"/>
</g>
<g fill="None" fill-opacity="0.0" stroke="#000000" stroke-opacity="1.00" stroke-width="0.3"><path d="
M 444.00 94.00 
C 447.58 96.51 455.98 92.12 460.00 94.00
C 459.51 88.64 459.52 82.36 460.00 77.00
C 454.76 77.47 449.26 77.00 444.00 77.00
C 444.51 82.62 443.62 88.37 444.00 94.00 Z"/>
</g>
<g fill="None" fill-opacity="0.0" stroke="#192E47" stroke-opacity="0.67" stroke-width="0.3"><path d="
M 460.00 94.00 
C 460.00 93.96 461.00 94.00 461.00 94.00
C 461.25 93.75 461.00 93.00 461.00 93.00
C 461.00 87.74 461.47 82.23 461.00 77.00
C 461.00 77.00 460.25 77.25 460.00 77.00
C 459.52 82.36 459.51 88.64 460.00 94.00 Z"/>
</g>
<g fill="None" fill-opacity="0.0" stroke="#000000" stroke-opacity="0.00" stroke-width="0.3"><path d="
M 461.00 93.00 
C 466.04 92.54 471.96 92.54 477.00 93.00
C 477.00 87.67 477.00 82.33 477.00 77.00
C 471.67 77.00 466.33 77.00 461.00 77.00
C 461.47 82.23 461.00 87.74 461.00 93.00 Z"/>
</g>
<g fill="None" fill-opacity="0.0" stroke="#000000" stroke-opacity="1.00" stroke-width="0.3"><path d="
M 478.00 94.00 
C 482.02 92.12 490.42 96.51 494.00 94.00
C 494.38 88.37 493.49 82.62 494.00 77.00
C 488.74 77.00 483.24 77.47 478.00 77.00
C 478.00 82.67 478.00 88.33 478.00 94.00 Z"/>
</g>
<g fill="None" fill-opacity="0.0" stroke="#15273B" stroke-opacity="0.81" stroke-width="0.3"><path d="
M 494.00 94.00 
C 496.47 92.27 495.29 80.19 495.00 77.00
C 495.00 77.00 494.50 77.00 494.00 77.00
C 493.49 82.62 494.38 88.37 494.00 94.00 Z"/>
</g>
<g fill="None" fill-opacity="0.0" stroke="#1A334F" stroke-opacity="0.53" stroke-width="0.3"><path d="
M 85.00 86.00 
C 88.70 86.33 99.52 87.48 102.00 85.00
C 96.37 85.38 90.62 84.49 85.00 85.00
C 85.00 85.00 84.96 86.00 85.00 86.00 Z"/>
</g>
<g fill="None" fill-opacity="0.0" stroke="#1C3C59" stroke-opacity="0.28" stroke-width="0.3"><path d="
M 461.00 94.00 
C 466.05 94.46 471.95 94.46 477.00 94.00
C 477.00 94.00 477.00 93.50 477.00 93.00
C 471.96 92.54 466.04 92.54 461.00 93.00
C 461.00 93.00 461.25 93.75 461.00 94.00 Z"/>
</g>
<g fill="None" fill-opacity="0.0" stroke="#152639" stroke-opacity="0.82" stroke-width="0.3"><path d="
M 461.00 111.00 
C 460.62 105.37 461.51 99.62 461.00 94.00
C 461.00 94.00 460.00 93.96 460.00 94.00
C 459.72 97.14 458.53 109.27 461.00 111.00 Z"/>
</g>
<g fill="None" fill-opacity="0.0" stroke="#000000" stroke-opacity="1.00" stroke-width="0.3"><path d="
M 461.00 111.00 
C 462.20 111.84 475.80 111.84 477.00 111.00
C 477.00 105.33 477.00 99.67 477.00 94.00
C 471.95 94.46 466.05 94.46 461.00 94.00
C 461.51 99.62 460.62 105.37 461.00 111.00 Z"/>
</g>
<g fill="None" fill-opacity="0.0" stroke="#000001" stroke-opacity="0.92" stroke-width="0.3"><path d="
M 392.00 104.00 
C 386.05 103.27 380.78 100.23 375.00 99.00
C 372.84 108.17 368.15 116.60 367.00 126.00
C 372.81 127.23 378.08 130.28 384.00 131.00
C 386.16 121.83 390.85 113.40 392.00 104.00 Z"/>
</g>
<g fill="None" fill-opacity="0.0" stroke="#FCD480" stroke-opacity="1.00" stroke-width="0.3"><path d="
M 315.00 102.00 
C 281.00 102.00 247.00 102.00 213.00 102.00
C 213.00 136.33 213.00 170.67 213.00 205.00
C 247.00 205.00 281.00 205.00 315.00 205.00
C 315.00 170.67 315.00 136.33 315.00 102.00
M 247.00 119.00 
C 247.00 125.00 247.00 131.00 247.00 137.00
C 241.33 137.00 235.67 137.00 230.00 137.00
C 230.00 131.00 230.00 125.00 230.00 119.00
C 235.67 119.00 241.33 119.00 247.00 119.00
M 298.00 136.00 
C 294.49 139.51 285.57 135.45 281.00 137.00
C 281.00 131.00 281.00 125.00 281.00 119.00
C 286.67 119.00 292.33 119.00 298.00 119.00
C 300.25 120.57 299.74 134.26 298.00 136.00
M 265.00 169.00 
C 275.02 164.61 276.55 155.22 289.01 154.01 C 301.46 152.80 298.51 171.97 287.77 173.77 C 277.03 175.57 274.21 189.46 263.00 188.00 C 251.78 186.54 250.66 175.32 239.25 172.75 C 227.85 170.17 228.56 151.05 241.00 154.00 C 253.44 156.95 253.66 165.34 265.00 169.00 Z"/>
</g>
<g fill="None" fill-opacity="0.0" stroke="#000000" stroke-opacity="1.00" stroke-width="0.3"><path d="
M 247.00 119.00 
C 241.33 119.00 235.67 119.00 230.00 119.00
C 230.00 125.00 230.00 131.00 230.00 137.00
C 235.67 137.00 241.33 137.00 247.00 137.00
C 247.00 131.00 247.00 125.00 247.00 119.00 Z"/>
</g>
<g fill="None" fill-opacity="0.0" stroke="#000000" stroke-opacity="1.00" stroke-width="0.3"><path d="
M 298.00 136.00 
C 300.66 132.20 296.00 123.27 298.00 119.00
C 292.33 119.00 286.67 119.00 281.00 119.00
C 281.00 125.00 281.00 131.00 281.00 137.00
C 285.57 135.45 294.49 139.51 298.00 136.00 Z"/>
</g>
<g fill="None" fill-opacity="0.0" stroke="#8F7F56" stroke-opacity="1.00" stroke-width="0.3"><path d="
M 298.00 136.00 
C 299.74 134.26 300.25 120.57 298.00 119.00
C 296.00 123.27 300.66 132.20 298.00 136.00 Z"/>
</g>
<g fill="None" fill-opacity="0.0" stroke="#427DBE" stroke-opacity="1.00" stroke-width="0.3"><path d="
M 157.00 120.00 
C 146.31 116.44 139.85 131.26 150.00 136.00 C 160.15 140.74 166.61 123.20 157.00 120.00 Z"/>
</g>
<g fill="None" fill-opacity="0.0" stroke="#000000" stroke-opacity="0.94" stroke-width="0.3"><path d="
M 19.00 150.00 
C 20.55 152.28 31.76 158.27 34.00 157.00
C 39.17 148.59 45.71 140.75 50.00 132.00
C 44.30 129.71 40.11 123.94 34.00 123.00
C 33.74 130.84 15.32 142.98 19.00 150.00 Z"/>
</g>
<g fill="None" fill-opacity="0.0" stroke="#1F4B63" stroke-opacity="0.25" stroke-width="0.3"><path d="
M 34.00 157.00 
C 31.76 158.27 20.55 152.28 19.00 150.00
C 21.02 153.86 31.33 159.36 34.00 157.00 Z"/>
</g>
<g fill="None" fill-opacity="0.0" stroke="#000000" stroke-opacity="1.00" stroke-width="0.3"><path d="
M 265.00 169.00 
C 253.66 165.34 253.44 156.95 241.00 154.00 C 228.56 151.05 227.85 170.17 239.25 172.75 C 250.66 175.32 251.78 186.54 263.00 188.00 C 274.21 189.46 277.03 175.57 287.77 173.77 C 298.51 171.97 301.46 152.80 289.01 154.01 C 276.55 155.22 275.02 164.61 265.00 169.00 Z"/>
</g>
<g fill="None" fill-opacity="0.0" stroke="#F3B649" stroke-opacity="1.00" stroke-width="0.3"><path d="
M 116.00 173.00 
C 107.48 169.02 88.75 153.29 82.99 167.99 C 77.24 182.69 100.35 186.60 108.00 192.00
C 109.62 185.30 115.08 179.89 116.00 173.00 Z"/>
</g>
<g fill="None" fill-opacity="0.0" stroke="#F4B749" stroke-opacity="1.00" stroke-width="0.3"><path d="
M 421.00 192.00 
C 428.71 186.07 450.95 182.50 444.92 168.08 C 438.89 153.65 420.69 169.50 412.00 173.00
C 414.17 179.64 418.11 185.59 421.00 192.00 Z"/>
</g>
<g fill="None" fill-opacity="0.0" stroke="#A8BBCB" stroke-opacity="1.00" stroke-width="0.3"><path d="
M 196.00 218.00 
C 174.05 207.19 153.17 193.38 131.00 183.00
C 126.44 191.53 118.85 201.44 128.25 206.75 C 137.64 212.07 142.27 218.00 150.75 223.25 C 159.24 228.49 165.19 234.47 173.25 239.75 C 181.32 245.02 187.73 251.18 196.00 256.00
C 196.00 243.33 196.00 230.67 196.00 218.00 Z"/>
</g>
<g fill="None" fill-opacity="0.0" stroke="#A8BBCB" stroke-opacity="1.00" stroke-width="0.3"><path d="
M 333.00 218.00 
C 330.61 222.84 334.06 231.60 333.00 237.00 C 331.94 242.40 332.96 250.32 334.00 255.00
C 341.65 249.53 348.54 244.78 356.25 239.25 C 363.96 233.72 369.98 228.53 378.25 223.25 C 386.52 217.96 390.79 212.25 400.25 207.25 C 409.71 202.24 401.44 190.72 398.00 183.00
C 390.83 185.96 381.82 189.91 375.25 194.25 C 368.68 198.58 360.10 201.55 354.23 206.23 C 348.36 210.91 337.22 212.15 333.00 218.00 Z"/>
</g>
<g fill="None" fill-opacity="0.0" stroke="#000102" stroke-opacity="0.89" stroke-width="0.3"><path d="
M 494.00 216.00 
C 488.33 214.62 483.65 210.38 478.00 209.00
C 474.98 215.02 472.02 220.97 469.00 227.00
C 474.73 229.55 480.05 233.16 486.00 235.00
C 487.62 228.30 493.08 222.89 494.00 216.00 Z"/>
</g>
<g fill="None" fill-opacity="0.0" stroke="#616D76" stroke-opacity="1.00" stroke-width="0.3"><path d="
M 334.00 255.00 
C 332.96 250.32 331.94 242.40 333.00 237.00 C 334.06 231.60 330.61 222.84 333.00 218.00
C 330.14 221.97 332.43 233.10 332.00 238.00 C 331.57 242.90 330.83 255.26 334.00 255.00 Z"/>
</g>
<g fill="None" fill-opacity="0.0" stroke="#4380C2" stroke-opacity="1.00" stroke-width="0.3"><path d="
M 230.00 222.00 
C 224.33 222.00 218.67 222.00 213.00 222.00
C 213.00 251.67 213.00 281.33 213.00 311.00
C 218.97 312.84 224.26 316.44 230.00 319.00
C 230.00 286.67 230.00 254.33 230.00 222.00 Z"/>
</g>
<g fill="None" fill-opacity="0.0" stroke="#BEBEBE" stroke-opacity="1.00" stroke-width="0.3"><path d="
M 281.00 222.00 
C 269.67 222.00 258.33 222.00 247.00 222.00
C 246.47 240.48 247.71 258.47 247.00 277.00 C 246.29 295.53 248.36 313.29 247.00 332.00 C 245.64 350.70 221.72 333.14 213.00 330.00
C 213.00 339.33 213.00 348.67 213.00 358.00
C 247.00 358.00 281.00 358.00 315.00 358.00
C 315.00 348.67 315.00 339.33 315.00 330.00
C 306.00 335.22 281.95 349.97 281.00 331.00 C 280.05 312.03 281.50 294.57 281.00 276.00 C 280.50 257.43 281.38 240.43 281.00 222.00 Z"/>
</g>
<g fill="None" fill-opacity="0.0" stroke="#427EBF" stroke-opacity="1.00" stroke-width="0.3"><path d="
M 315.00 222.00 
C 309.33 222.00 303.67 222.00 298.00 222.00
C 298.00 254.33 298.00 286.67 298.00 319.00
C 303.73 316.45 309.06 312.84 315.00 311.00
C 315.00 281.33 315.00 251.67 315.00 222.00 Z"/>
</g>
<g fill="None" fill-opacity="0.0" stroke="#1C3754" stroke-opacity="0.46" stroke-width="0.3"><path d="
M 62.00 236.00 
C 66.43 232.91 69.62 228.06 74.00 225.00
C 73.77 224.84 74.00 224.00 74.00 224.00
C 71.16 225.18 62.84 232.94 62.00 236.00 Z"/>
</g>
<g fill="None" fill-opacity="0.0" stroke="#1D3A57" stroke-opacity="0.31" stroke-width="0.3"><path d="
M 74.00 225.00 
C 80.33 229.43 84.72 236.61 91.00 241.00
C 88.81 236.51 78.69 225.95 74.00 224.00
C 74.00 224.00 73.77 224.84 74.00 225.00 Z"/>
</g>
<g fill="None" fill-opacity="0.0" stroke="#000000" stroke-opacity="1.00" stroke-width="0.3"><path d="
M 62.00 236.00 
C 66.68 242.15 73.37 246.89 78.00 253.00
C 83.33 251.28 86.18 244.81 91.00 242.00
C 91.00 242.00 91.20 241.40 91.00 241.00
C 84.72 236.61 80.33 229.43 74.00 225.00
C 69.62 228.06 66.43 232.91 62.00 236.00 Z"/>
</g>
<g fill="None" fill-opacity="0.0" stroke="#203B5B" stroke-opacity="0.23" stroke-width="0.3"><path d="
M 91.00 242.00 
C 86.18 244.81 83.33 251.28 78.00 253.00
C 73.37 246.89 66.68 242.15 62.00 236.00
C 65.00 241.55 73.54 249.95 80.00 254.00
C 82.47 249.32 88.65 246.81 91.00 242.00 Z"/>
</g>
<g fill="None" fill-opacity="0.0" stroke="#22465C" stroke-opacity="0.09" stroke-width="0.3"><path d="
M 386.00 270.00 
C 390.43 266.90 393.62 262.06 398.00 259.00
C 397.77 258.84 398.00 258.00 398.00 258.00
C 394.54 259.45 387.67 266.58 386.00 270.00 Z"/>
</g>
<g fill="None" fill-opacity="0.0" stroke="#1D3552" stroke-opacity="0.43" stroke-width="0.3"><path d="
M 398.00 259.00 
C 404.46 263.51 409.54 270.54 415.00 276.00
C 415.64 273.65 401.70 259.54 398.00 258.00
C 398.00 258.00 397.77 258.84 398.00 259.00 Z"/>
</g>
<g fill="None" fill-opacity="0.0" stroke="#000000" stroke-opacity="1.00" stroke-width="0.3"><path d="
M 386.00 270.00 
C 386.00 270.00 385.80 270.60 386.00 271.00
C 392.33 275.43 396.72 282.61 403.00 287.00
C 407.43 283.91 410.60 279.02 415.00 276.00
C 409.54 270.54 404.46 263.51 398.00 259.00
C 393.62 262.06 390.43 266.90 386.00 270.00 Z"/>
</g>
<g fill="None" fill-opacity="0.0" stroke="#1D3D60" stroke-opacity="0.16" stroke-width="0.3"><path d="
M 403.00 288.00 
C 403.18 287.93 403.00 287.00 403.00 287.00
C 396.72 282.61 392.33 275.43 386.00 271.00
C 388.19 275.49 398.32 286.05 403.00 288.00 Z"/>
</g>
<g fill="None" fill-opacity="0.0" stroke="#1A334D" stroke-opacity="0.56" stroke-width="0.3"><path d="
M 403.00 287.00 
C 403.00 287.00 403.18 287.93 403.00 288.00
C 405.84 286.82 414.16 279.06 415.00 276.00
C 410.60 279.02 407.43 283.91 403.00 287.00 Z"/>
</g>
<g fill="None" fill-opacity="0.0" stroke="#1C3753" stroke-opacity="0.46" stroke-width="0.3"><path d="
M 130.00 301.00 
C 130.07 301.18 131.00 301.00 131.00 301.00
C 134.89 295.43 141.49 288.85 147.00 285.00
C 146.77 284.84 147.00 284.00 147.00 284.00
C 142.67 285.81 131.83 296.60 130.00 301.00 Z"/>
</g>
<g fill="None" fill-opacity="0.0" stroke="#142B3D" stroke-opacity="0.78" stroke-width="0.3"><path d="
M 147.00 285.00 
C 151.43 288.10 154.60 292.97 159.00 296.00
C 156.28 292.12 152.22 288.37 149.00 285.00
C 148.68 284.78 147.88 283.07 147.00 284.00
C 147.00 284.00 146.77 284.84 147.00 285.00 Z"/>
</g>
<g fill="None" fill-opacity="0.0" stroke="#000000" stroke-opacity="1.00" stroke-width="0.3"><path d="
M 131.00 301.00 
C 134.10 305.43 138.97 308.60 142.00 313.00
C 147.51 307.49 154.52 302.41 159.00 296.00
C 154.60 292.97 151.43 288.10 147.00 285.00
C 141.49 288.85 134.89 295.43 131.00 301.00 Z"/>
</g>
<g fill="None" fill-opacity="0.0" stroke="#404080" stroke-opacity="0.02" stroke-width="0.3"><path d="
M 159.00 296.00 
C 159.16 295.77 160.00 296.00 160.00 296.00
C 158.45 292.27 152.32 287.28 149.00 285.00
C 152.22 288.37 156.28 292.12 159.00 296.00 Z"/>
</g>
<g fill="None" fill-opacity="0.0" stroke="#1D3E59" stroke-opacity="0.17" stroke-width="0.3"><path d="
M 142.00 313.00 
C 144.35 313.65 158.45 299.70 160.00 296.00
C 160.00 296.00 159.16 295.77 159.00 296.00
C 154.52 302.41 147.51 307.49 142.00 313.00 Z"/>
</g>
<g fill="None" fill-opacity="0.0" stroke="#16293F" stroke-opacity="0.77" stroke-width="0.3"><path d="
M 142.00 313.00 
C 138.97 308.60 134.10 305.43 131.00 301.00
C 131.00 301.00 130.07 301.18 130.00 301.00
C 131.18 303.84 138.94 312.16 142.00 313.00 Z"/>
</g>
<g fill="None" fill-opacity="0.0" stroke="#836227" stroke-opacity="1.00" stroke-width="0.3"><path d="
M 256.00 375.00 
C 245.69 375.53 237.99 371.46 238.00 384.00 C 238.01 396.54 245.68 392.49 256.00 393.00
C 256.00 387.00 256.00 381.00 256.00 375.00
M 255.00 376.00 
C 255.00 381.33 255.00 386.67 255.00 392.00
C 249.67 392.00 244.33 392.00 239.00 392.00
C 239.00 386.67 239.00 381.33 239.00 376.00
C 244.33 376.00 249.67 376.00 255.00 376.00 Z"/>
</g>
<g fill="None" fill-opacity="0.0" stroke="#78541B" stroke-opacity="1.00" stroke-width="0.3"><path d="
M 273.00 376.00 
C 278.67 376.00 284.33 376.00 290.00 376.00
C 288.64 374.05 274.41 373.99 273.00 376.00 Z"/>
</g>
<g fill="None" fill-opacity="0.0" stroke="#F8BB4B" stroke-opacity="1.00" stroke-width="0.3"><path d="
M 255.00 376.00 
C 249.67 376.00 244.33 376.00 239.00 376.00
C 239.00 381.33 239.00 386.67 239.00 392.00
C 244.33 392.00 249.67 392.00 255.00 392.00
C 255.00 386.67 255.00 381.33 255.00 376.00 Z"/>
</g>
<g fill="None" fill-opacity="0.0" stroke="#E19F34" stroke-opacity="1.00" stroke-width="0.3"><path d="
M 273.00 392.00 
C 278.67 392.00 284.33 392.00 290.00 392.00
C 290.84 390.80 290.84 377.20 290.00 376.00
C 284.33 376.00 278.67 376.00 273.00 376.00
C 272.16 377.20 272.16 390.80 273.00 392.00 Z"/>
</g>
<g fill="None" fill-opacity="0.0" stroke="#78541B" stroke-opacity="1.00" stroke-width="0.3"><path d="
M 290.00 392.00 
C 284.33 392.00 278.67 392.00 273.00 392.00
C 274.36 393.95 288.59 394.01 290.00 392.00 Z"/>
</g>
<g fill="None" fill-opacity="0.0" stroke="#525F62" stroke-opacity="1.00" stroke-width="0.3"><path d="
M 85.00 410.00 
C 113.33 410.00 141.67 410.00 170.00 410.00
C 167.19 405.99 154.32 409.97 149.00 409.00 C 143.68 408.03 132.82 409.05 127.00 409.00 C 121.18 408.95 110.30 408.17 105.00 409.00 C 99.70 409.83 87.74 406.09 85.00 410.00 Z"/>
</g>
<g fill="None" fill-opacity="0.0" stroke="#515D60" stroke-opacity="1.00" stroke-width="0.3"><path d="
M 290.00 410.00 
C 295.67 410.00 301.33 410.00 307.00 410.00
C 305.64 408.05 291.41 407.99 290.00 410.00 Z"/>
</g>
<g fill="None" fill-opacity="0.0" stroke="#4D5A5D" stroke-opacity="1.00" stroke-width="0.3"><path d="
M 358.00 410.00 
C 386.33 410.00 414.67 410.00 443.00 410.00
C 443.00 438.34 443.00 466.66 443.00 495.00
C 447.01 492.19 443.06 479.37 444.00 474.00 C 444.94 468.63 444.02 457.94 444.00 452.00 C 443.98 446.06 445.01 435.57 444.00 430.00 C 442.99 424.43 447.23 413.46 443.22 409.78 C 439.21 406.10 427.69 409.96 422.00 409.00 C 416.31 408.04 405.98 409.04 400.00 409.00 C 394.02 408.96 383.38 408.15 378.00 409.00 C 372.62 409.85 360.76 406.05 358.00 410.00 Z"/>
</g>
<g fill="None" fill-opacity="0.0" stroke="#414951" stroke-opacity="1.00" stroke-width="0.3"><path d="
M 461.00 495.00 
C 461.00 466.67 461.00 438.33 461.00 410.00
C 466.33 410.00 471.67 410.00 477.00 410.00
C 477.00 438.34 477.00 466.66 477.00 495.00
C 481.04 492.17 476.87 479.19 478.00 474.00 C 479.13 468.81 477.70 458.69 478.00 453.00 C 478.30 447.31 478.35 437.31 478.00 432.00 C 477.65 426.69 479.24 414.06 477.74 410.26 C 476.24 406.45 460.82 406.94 460.00 411.00 C 459.18 415.06 460.16 426.45 460.00 432.00 C 459.84 437.55 459.69 448.16 460.00 454.00 C 460.31 459.84 458.93 469.77 460.00 475.00 C 461.07 480.23 457.00 492.20 461.00 495.00 Z"/>
</g>
<g fill="None" fill-opacity="0.0" stroke="#7B8B9A" stroke-opacity="1.00" stroke-width="0.3"><path d="
M 68.00 410.00 
C 62.33 410.00 56.67 410.00 51.00 410.00
C 51.00 438.33 51.00 466.67 51.00 495.00
C 56.67 495.00 62.33 495.00 68.00 495.00
C 68.00 466.66 68.00 438.34 68.00 410.00 Z"/>
</g>
<g fill="None" fill-opacity="0.0" stroke="#CCEDF5" stroke-opacity="1.00" stroke-width="0.3"><path d="
M 170.00 410.00 
C 141.67 410.00 113.33 410.00 85.00 410.00
C 85.00 438.33 85.00 466.67 85.00 495.00
C 113.33 495.00 141.67 495.00 170.00 495.00
C 169.74 487.99 170.35 479.90 170.00 473.00 C 169.65 466.10 170.69 458.58 170.00 452.00 C 169.31 445.42 171.50 436.99 170.00 431.00 C 168.50 425.01 173.30 414.72 170.00 410.00 Z"/>
</g>
<g fill="None" fill-opacity="0.0" stroke="#7B8A99" stroke-opacity="1.00" stroke-width="0.3"><path d="
M 273.00 410.00 
C 244.33 410.00 215.67 410.00 187.00 410.00
C 187.00 438.33 187.00 466.67 187.00 495.00
C 215.67 495.00 244.33 495.00 273.00 495.00
C 273.00 466.66 273.00 438.34 273.00 410.00
M 237.00 427.00 
C 268.29 433.48 255.88 486.33 223.93 477.07 C 191.97 467.81 203.76 420.12 237.00 427.00 Z"/>
</g>
<g fill="None" fill-opacity="0.0" stroke="#CAEBF3" stroke-opacity="1.00" stroke-width="0.3"><path d="
M 307.00 410.00 
C 301.33 410.00 295.67 410.00 290.00 410.00
C 290.00 438.33 290.00 466.67 290.00 495.00
C 295.67 495.00 301.33 495.00 307.00 495.00
C 306.74 487.99 307.35 479.90 307.00 473.00 C 306.65 466.10 307.69 458.58 307.00 452.00 C 306.31 445.42 308.50 436.99 307.00 431.00 C 305.50 425.01 310.30 414.72 307.00 410.00 Z"/>
</g>
<g fill="None" fill-opacity="0.0" stroke="#7C8C9B" stroke-opacity="1.00" stroke-width="0.3"><path d="
M 341.00 410.00 
C 335.33 410.00 329.67 410.00 324.00 410.00
C 324.00 438.33 324.00 466.67 324.00 495.00
C 329.67 495.00 335.33 495.00 341.00 495.00
C 341.00 466.66 341.00 438.34 341.00 410.00 Z"/>
</g>
<g fill="None" fill-opacity="0.0" stroke="#CCEDF5" stroke-opacity="1.00" stroke-width="0.3"><path d="
M 443.00 495.00 
C 443.00 466.66 443.00 438.34 443.00 410.00
C 414.67 410.00 386.33 410.00 358.00 410.00
C 358.00 438.33 358.00 466.67 358.00 495.00
C 365.01 494.74 373.10 495.35 380.00 495.00 C 386.90 494.65 394.42 495.69 401.00 495.00 C 407.58 494.31 416.01 496.50 422.00 495.00 C 427.99 493.50 438.28 498.30 443.00 495.00 Z"/>
</g>
<g fill="None" fill-opacity="0.0" stroke="#7C8C9B" stroke-opacity="1.00" stroke-width="0.3"><path d="
M 461.00 495.00 
C 462.20 495.84 475.80 495.84 477.00 495.00
C 477.00 466.66 477.00 438.34 477.00 410.00
C 471.67 410.00 466.33 410.00 461.00 410.00
C 461.00 438.33 461.00 466.67 461.00 495.00 Z"/>
</g>
<g fill="None" fill-opacity="0.0" stroke="#000000" stroke-opacity="1.00" stroke-width="0.3"><path d="
M 237.00 427.00 
C 203.76 420.12 191.97 467.81 223.93 477.07 C 255.88 486.33 268.29 433.48 237.00 427.00
M 234.00 444.00 
C 243.10 447.36 236.62 465.01 226.93 460.07 C 217.24 455.14 223.16 440.00 234.00 444.00 Z"/>
</g>
<g fill="None" fill-opacity="0.0" stroke="#F2B649" stroke-opacity="1.00" stroke-width="0.3"><path d="
M 234.00 444.00 
C 223.16 440.00 217.24 455.14 226.93 460.07 C 236.62 465.01 243.10 447.36 234.00 444.00 Z"/>
</g>
<g fill="#000000" fill-opacity="0.01" stroke="None">
<path d="
M 0.00 512.00 
L 41.00 512.00
C 29.59 505.28 34.14 487.43 34.00 475.00 C 33.86 462.57 33.01 441.83 34.00 430.00 C 34.99 418.17 27.92 395.60 42.01 393.01 C 56.10 390.42 72.42 394.17 87.00 393.00 C 101.58 391.83 117.19 393.55 132.00 393.00 C 146.81 392.45 162.10 393.29 177.00 393.00 C 191.90 392.72 207.08 393.21 222.00 393.00
C 222.00 387.00 222.00 381.00 222.00 375.00
C 213.33 375.00 204.67 375.00 196.00 375.00
C 195.68 357.81 196.43 335.70 196.00 319.00 C 195.57 302.30 200.51 279.69 187.30 270.70 C 174.09 261.70 166.44 255.01 154.30 246.70 C 142.17 238.39 133.12 230.53 121.30 222.70 C 109.49 214.86 99.87 205.66 86.92 200.08 C 73.97 194.50 64.87 182.13 66.00 170.00 C 67.13 157.86 71.75 151.89 82.25 146.81 C 92.76 141.73 104.69 146.02 112.75 151.39 C 120.82 156.77 128.63 161.85 136.92 166.13 C 145.20 170.41 151.60 174.45 160.30 179.71 C 169.01 184.98 185.61 193.44 196.00 199.00
C 196.73 184.80 195.02 170.16 196.00 156.00 C 196.98 141.84 194.13 127.00 196.00 113.00 C 197.87 99.00 191.64 93.09 182.90 87.10 C 174.16 81.11 170.79 76.10 162.00 70.00
C 162.00 81.67 162.00 93.33 162.00 105.00
C 188.41 112.32 180.17 153.59 152.99 153.01 C 125.81 152.42 118.73 115.86 143.00 104.00
C 146.64 97.10 143.31 86.28 144.00 78.00 C 144.69 69.72 143.77 58.78 145.00 51.00
C 145.22 40.04 163.11 39.76 171.25 35.20 C 179.39 30.64 192.10 27.97 201.25 23.81 C 210.40 19.65 221.64 16.08 231.25 12.20 C 240.86 8.32 251.61 4.48 262.00 0.00
L 0.00 0.00
L 0.00 512.00
M 103.00 51.00 
C 106.58 53.51 115.42 48.49 119.00 51.00
C 121.25 52.58 120.81 67.26 119.00 69.00
C 113.76 69.47 108.26 69.00 103.00 69.00
C 103.32 72.60 104.38 82.62 102.00 85.00
C 99.52 87.48 88.70 86.33 85.00 86.00
C 82.51 83.61 83.67 72.63 84.00 69.00
C 78.74 69.00 73.24 69.47 68.00 69.00
C 66.12 67.20 65.81 52.53 68.00 51.00
C 71.58 48.49 80.42 53.51 84.00 51.00
C 85.73 47.04 81.25 36.62 85.00 34.00
C 86.28 33.10 100.72 33.10 102.00 34.00
C 105.75 36.63 101.26 47.09 103.00 51.00
M 34.00 157.00 
C 31.33 159.36 21.02 153.86 19.00 150.00
C 15.32 142.98 33.74 130.84 34.00 123.00
C 40.11 123.94 44.30 129.71 50.00 132.00
C 45.71 140.75 39.17 148.59 34.00 157.00
M 91.00 241.00 
C 91.20 241.40 91.00 242.00 91.00 242.00
C 88.65 246.81 82.47 249.32 80.00 254.00
C 73.54 249.95 65.00 241.55 62.00 236.00
C 62.84 232.94 71.16 225.18 74.00 224.00
C 78.69 225.95 88.81 236.51 91.00 241.00
M 149.00 285.00 
C 152.32 287.28 158.45 292.27 160.00 296.00
C 158.45 299.70 144.35 313.65 142.00 313.00
C 138.94 312.16 131.18 303.84 130.00 301.00
C 131.83 296.60 142.67 285.81 147.00 284.00
C 147.88 283.07 148.68 284.78 149.00 285.00 Z"/>
</g>
<g fill="#000000" fill-opacity="1.00" stroke="None">
<path d="
M 145.00 51.00 
C 144.83 59.43 145.61 70.88 145.00 79.00 C 144.39 87.12 147.31 100.26 143.00 104.00
C 118.73 115.86 125.81 152.42 152.99 153.01 C 180.17 153.59 188.41 112.32 162.00 105.00
C 162.00 93.33 162.00 81.67 162.00 70.00
C 170.79 76.10 174.16 81.11 182.90 87.10 C 191.64 93.09 197.87 99.00 196.00 113.00 C 194.13 127.00 196.98 141.84 196.00 156.00 C 195.02 170.16 196.73 184.80 196.00 199.00
C 185.61 193.44 169.01 184.98 160.30 179.71 C 151.60 174.45 145.20 170.41 136.92 166.13 C 128.63 161.85 120.82 156.77 112.75 151.39 C 104.69 146.02 92.76 141.73 82.25 146.81 C 71.75 151.89 67.13 157.86 66.00 170.00 C 64.87 182.13 73.97 194.50 86.92 200.08 C 99.87 205.66 109.49 214.86 121.30 222.70 C 133.12 230.53 142.17 238.39 154.30 246.70 C 166.44 255.01 174.09 261.70 187.30 270.70 C 200.51 279.69 195.57 302.30 196.00 319.00 C 196.43 335.70 195.68 357.81 196.00 375.00
C 204.67 375.00 213.33 375.00 222.00 375.00
C 222.00 381.00 222.00 387.00 222.00 393.00
C 207.08 393.21 191.90 392.72 177.00 393.00 C 162.10 393.29 146.81 392.45 132.00 393.00 C 117.19 393.55 101.58 391.83 87.00 393.00 C 72.42 394.17 56.10 390.42 42.01 393.01 C 27.92 395.60 34.99 418.17 34.00 430.00 C 33.01 441.83 33.86 462.57 34.00 475.00 C 34.14 487.43 29.59 505.28 41.00 512.00
L 487.00 512.00
C 498.54 505.44 493.84 487.45 494.00 475.00 C 494.16 462.55 495.01 441.87 494.00 430.00 C 492.99 418.13 500.25 395.37 485.99 393.01 C 471.73 390.64 455.66 394.07 441.00 393.00 C 426.34 391.93 410.84 393.50 396.00 393.00 C 381.16 392.50 365.92 393.26 351.00 393.00 C 336.08 392.74 320.94 393.20 306.00 393.00
C 306.00 387.00 306.00 381.00 306.00 375.00
C 314.67 375.00 323.33 375.00 332.00 375.00
C 332.32 357.88 331.57 335.61 332.00 319.00 C 332.43 302.39 327.49 279.51 340.75 270.75 C 354.01 261.98 361.78 255.07 373.75 246.75 C 385.71 238.42 394.83 231.23 406.23 223.23 C 417.63 215.23 428.37 206.36 440.70 200.70 C 453.02 195.03 464.16 182.53 463.00 170.00 C 461.84 157.47 455.38 151.42 445.25 146.61 C 435.11 141.80 423.53 146.45 416.23 151.58 C 408.93 156.70 400.63 160.97 392.70 165.71 C 384.76 170.45 376.25 174.01 367.70 179.71 C 359.15 185.41 342.51 193.53 332.00 199.00
C 332.00 165.00 332.00 131.00 332.00 97.00
C 340.65 92.16 349.01 84.95 356.77 77.43 C 364.52 69.91 375.06 65.89 382.08 56.08 C 389.10 46.28 373.37 40.80 366.23 38.42 C 359.09 36.05 349.04 32.24 341.25 29.60 C 333.47 26.96 324.74 21.77 316.30 19.36 C 307.85 16.95 300.21 12.50 291.70 9.29 C 283.18 6.07 274.45 3.84 265.00 0.00
L 262.00 0.00
C 251.61 4.48 240.86 8.32 231.25 12.20 C 221.64 16.08 210.40 19.65 201.25 23.81 C 192.10 27.97 179.39 30.64 171.25 35.20 C 163.11 39.76 145.22 40.04 145.00 51.00
M 358.00 54.00 
C 349.69 61.04 341.24 69.38 332.00 75.00
C 337.29 55.74 326.50 49.46 310.00 51.00 C 293.50 52.54 280.16 50.99 264.00 51.00 C 247.84 51.01 234.37 52.52 218.00 51.00 C 201.63 49.48 190.88 56.14 196.00 75.00
C 187.46 68.28 177.06 61.81 171.00 53.00
C 183.66 48.41 195.84 45.06 208.22 39.22 C 220.61 33.39 233.64 31.62 246.02 25.02 C 258.41 18.43 270.62 18.02 283.07 24.93 C 295.52 31.83 308.17 33.48 320.68 39.32 C 333.18 45.16 345.54 48.22 358.00 54.00
M 315.00 68.00 
C 315.00 73.67 315.00 79.33 315.00 85.00
C 281.00 85.00 247.00 85.00 213.00 85.00
C 213.00 79.33 213.00 73.67 213.00 68.00
C 247.00 68.00 281.00 68.00 315.00 68.00
M 315.00 102.00 
C 315.00 136.33 315.00 170.67 315.00 205.00
C 281.00 205.00 247.00 205.00 213.00 205.00
C 213.00 170.67 213.00 136.33 213.00 102.00
C 247.00 102.00 281.00 102.00 315.00 102.00
M 157.00 120.00 
C 166.61 123.20 160.15 140.74 150.00 136.00 C 139.85 131.26 146.31 116.44 157.00 120.00
M 116.00 173.00 
C 115.08 179.89 109.62 185.30 108.00 192.00
C 100.35 186.60 77.24 182.69 82.99 167.99 C 88.75 153.29 107.48 169.02 116.00 173.00
M 421.00 192.00 
C 418.11 185.59 414.17 179.64 412.00 173.00
C 420.69 169.50 438.89 153.65 444.92 168.08 C 450.95 182.50 428.71 186.07 421.00 192.00
M 196.00 218.00 
C 196.00 230.67 196.00 243.33 196.00 256.00
C 187.73 251.18 181.32 245.02 173.25 239.75 C 165.19 234.47 159.24 228.49 150.75 223.25 C 142.27 218.00 137.64 212.07 128.25 206.75 C 118.85 201.44 126.44 191.53 131.00 183.00
C 153.17 193.38 174.05 207.19 196.00 218.00
M 334.00 255.00 
C 330.83 255.26 331.57 242.90 332.00 238.00 C 332.43 233.10 330.14 221.97 333.00 218.00
C 337.22 212.15 348.36 210.91 354.23 206.23 C 360.10 201.55 368.68 198.58 375.25 194.25 C 381.82 189.91 390.83 185.96 398.00 183.00
C 401.44 190.72 409.71 202.24 400.25 207.25 C 390.79 212.25 386.52 217.96 378.25 223.25 C 369.98 228.53 363.96 233.72 356.25 239.25 C 348.54 244.78 341.65 249.53 334.00 255.00
M 230.00 222.00 
C 230.00 254.33 230.00 286.67 230.00 319.00
C 224.26 316.44 218.97 312.84 213.00 311.00
C 213.00 281.33 213.00 251.67 213.00 222.00
C 218.67 222.00 224.33 222.00 230.00 222.00
M 281.00 222.00 
C 281.38 240.43 280.50 257.43 281.00 276.00 C 281.50 294.57 280.05 312.03 281.00 331.00 C 281.95 349.97 306.00 335.22 315.00 330.00
C 315.00 339.33 315.00 348.67 315.00 358.00
C 281.00 358.00 247.00 358.00 213.00 358.00
C 213.00 348.67 213.00 339.33 213.00 330.00
C 221.72 333.14 245.64 350.70 247.00 332.00 C 248.36 313.29 246.29 295.53 247.00 277.00 C 247.71 258.47 246.47 240.48 247.00 222.00
C 258.33 222.00 269.67 222.00 281.00 222.00
M 315.00 222.00 
C 315.00 251.67 315.00 281.33 315.00 311.00
C 309.06 312.84 303.73 316.45 298.00 319.00
C 298.00 286.67 298.00 254.33 298.00 222.00
C 303.67 222.00 309.33 222.00 315.00 222.00
M 256.00 375.00 
C 256.00 381.00 256.00 387.00 256.00 393.00
C 245.68 392.49 238.01 396.54 238.00 384.00 C 237.99 371.46 245.69 375.53 256.00 375.00
M 290.00 376.00 
C 290.84 377.20 290.84 390.80 290.00 392.00
C 288.59 394.01 274.36 393.95 273.00 392.00
C 272.16 390.80 272.16 377.20 273.00 376.00
C 274.41 373.99 288.64 374.05 290.00 376.00
M 170.00 410.00 
C 173.30 414.72 168.50 425.01 170.00 431.00 C 171.50 436.99 169.31 445.42 170.00 452.00 C 170.69 458.58 169.65 466.10 170.00 473.00 C 170.35 479.90 169.74 487.99 170.00 495.00
C 141.67 495.00 113.33 495.00 85.00 495.00
C 85.00 466.67 85.00 438.33 85.00 410.00
C 87.74 406.09 99.70 409.83 105.00 409.00 C 110.30 408.17 121.18 408.95 127.00 409.00 C 132.82 409.05 143.68 408.03 149.00 409.00 C 154.32 409.97 167.19 405.99 170.00 410.00
M 307.00 410.00 
C 310.30 414.72 305.50 425.01 307.00 431.00 C 308.50 436.99 306.31 445.42 307.00 452.00 C 307.69 458.58 306.65 466.10 307.00 473.00 C 307.35 479.90 306.74 487.99 307.00 495.00
C 301.33 495.00 295.67 495.00 290.00 495.00
C 290.00 466.67 290.00 438.33 290.00 410.00
C 291.41 407.99 305.64 408.05 307.00 410.00
M 443.00 495.00 
C 438.28 498.30 427.99 493.50 422.00 495.00 C 416.01 496.50 407.58 494.31 401.00 495.00 C 394.42 495.69 386.90 494.65 380.00 495.00 C 373.10 495.35 365.01 494.74 358.00 495.00
C 358.00 466.67 358.00 438.33 358.00 410.00
C 360.76 406.05 372.62 409.85 378.00 409.00 C 383.38 408.15 394.02 408.96 400.00 409.00 C 405.98 409.04 416.31 408.04 422.00 409.00 C 427.69 409.96 439.21 406.10 443.22 409.78 C 447.23 413.46 442.99 424.43 444.00 430.00 C 445.01 435.57 443.98 446.06 444.00 452.00 C 444.02 457.94 444.94 468.63 444.00 474.00 C 443.06 479.37 447.01 492.19 443.00 495.00
M 477.00 495.00 
C 475.80 495.84 462.20 495.84 461.00 495.00
C 457.00 492.20 461.07 480.23 460.00 475.00 C 458.93 469.77 460.31 459.84 460.00 454.00 C 459.69 448.16 459.84 437.55 460.00 432.00 C 460.16 426.45 459.18 415.06 460.00 411.00 C 460.82 406.94 476.24 406.45 477.74 410.26 C 479.24 414.06 477.65 426.69 478.00 432.00 C 478.35 437.31 478.30 447.31 478.00 453.00 C 477.70 458.69 479.13 468.81 478.00 474.00 C 476.87 479.19 481.04 492.17 477.00 495.00
M 68.00 410.00 
C 68.00 438.34 68.00 466.66 68.00 495.00
C 62.33 495.00 56.67 495.00 51.00 495.00
C 51.00 466.67 51.00 438.33 51.00 410.00
C 56.67 410.00 62.33 410.00 68.00 410.00
M 273.00 410.00 
C 273.00 438.34 273.00 466.66 273.00 495.00
C 244.33 495.00 215.67 495.00 187.00 495.00
C 187.00 466.67 187.00 438.33 187.00 410.00
C 215.67 410.00 244.33 410.00 273.00 410.00
M 341.00 410.00 
C 341.00 438.34 341.00 466.66 341.00 495.00
C 335.33 495.00 329.67 495.00 324.00 495.00
C 324.00 466.67 324.00 438.33 324.00 410.00
C 329.67 410.00 335.33 410.00 341.00 410.00 Z"/>
</g>
<g fill="#000000" fill-opacity="0.01" stroke="None">
<path d="
M 487.00 512.00 
L 512.00 512.00
L 512.00 0.00
L 265.00 0.00
C 274.45 3.84 283.18 6.07 291.70 9.29 C 300.21 12.50 307.85 16.95 316.30 19.36 C 324.74 21.77 333.47 26.96 341.25 29.60 C 349.04 32.24 359.09 36.05 366.23 38.42 C 373.37 40.80 389.10 46.28 382.08 56.08 C 375.06 65.89 364.52 69.91 356.77 77.43 C 349.01 84.95 340.65 92.16 332.00 97.00
C 332.00 131.00 332.00 165.00 332.00 199.00
C 342.51 193.53 359.15 185.41 367.70 179.71 C 376.25 174.01 384.76 170.45 392.70 165.71 C 400.63 160.97 408.93 156.70 416.23 151.58 C 423.53 146.45 435.11 141.80 445.25 146.61 C 455.38 151.42 461.84 157.47 463.00 170.00 C 464.16 182.53 453.02 195.03 440.70 200.70 C 428.37 206.36 417.63 215.23 406.23 223.23 C 394.83 231.23 385.71 238.42 373.75 246.75 C 361.78 255.07 354.01 261.98 340.75 270.75 C 327.49 279.51 332.43 302.39 332.00 319.00 C 331.57 335.61 332.32 357.88 332.00 375.00
C 323.33 375.00 314.67 375.00 306.00 375.00
C 306.00 381.00 306.00 387.00 306.00 393.00
C 320.94 393.20 336.08 392.74 351.00 393.00 C 365.92 393.26 381.16 392.50 396.00 393.00 C 410.84 393.50 426.34 391.93 441.00 393.00 C 455.66 394.07 471.73 390.64 485.99 393.01 C 500.25 395.37 492.99 418.13 494.00 430.00 C 495.01 441.87 494.16 462.55 494.00 475.00 C 493.84 487.45 498.54 505.44 487.00 512.00
M 478.00 60.00 
C 478.48 65.23 478.00 70.74 478.00 76.00
C 481.68 75.67 492.62 74.52 495.00 77.00
C 495.29 80.19 496.47 92.27 494.00 94.00
C 490.42 96.51 482.02 92.12 478.00 94.00
C 478.00 97.40 479.69 109.12 477.00 111.00
C 475.80 111.84 462.20 111.84 461.00 111.00
C 458.53 109.27 459.72 97.14 460.00 94.00
C 455.98 92.12 447.58 96.51 444.00 94.00
C 441.52 92.27 442.72 80.14 443.00 77.00
C 445.39 74.51 456.37 75.67 460.00 76.00
C 459.99 70.74 459.53 65.23 460.00 60.00
C 462.01 57.91 476.05 57.97 478.00 60.00
M 392.00 104.00 
C 390.85 113.40 386.16 121.83 384.00 131.00
C 378.08 130.28 372.81 127.23 367.00 126.00
C 368.15 116.60 372.84 108.17 375.00 99.00
C 380.78 100.23 386.05 103.27 392.00 104.00
M 494.00 216.00 
C 493.08 222.89 487.62 228.30 486.00 235.00
C 480.05 233.16 474.73 229.55 469.00 227.00
C 472.02 220.97 474.98 215.02 478.00 209.00
C 483.65 210.38 488.33 214.62 494.00 216.00
M 415.00 276.00 
C 414.16 279.06 405.84 286.82 403.00 288.00
C 398.32 286.05 388.19 275.49 386.00 271.00
C 385.80 270.60 386.00 270.00 386.00 270.00
C 387.67 266.58 394.54 259.45 398.00 258.00
C 401.70 259.54 415.64 273.65 415.00 276.00 Z"/>
</g>
<g fill="#7B8B9A" fill-opacity="1.00" stroke="None">
<path d="
M 358.00 54.00 
C 345.54 48.22 333.18 45.16 320.68 39.32 C 308.17 33.48 295.52 31.83 283.07 24.93 C 270.62 18.02 258.41 18.43 246.02 25.02 C 233.64 31.62 220.61 33.39 208.22 39.22 C 195.84 45.06 183.66 48.41 171.00 53.00
C 177.06 61.81 187.46 68.28 196.00 75.00
C 190.88 56.14 201.63 49.48 218.00 51.00 C 234.37 52.52 247.84 51.01 264.00 51.00 C 280.16 50.99 293.50 52.54 310.00 51.00 C 326.50 49.46 337.29 55.74 332.00 75.00
C 341.24 69.38 349.69 61.04 358.00 54.00 Z"/>
</g>
<g fill="#224658" fill-opacity="0.11" stroke="None">
<path d="
M 84.00 51.00 
C 87.75 48.37 83.26 37.91 85.00 34.00
C 81.25 36.62 85.73 47.04 84.00 51.00 Z"/>
</g>
<g fill="#000000" fill-opacity="1.00" stroke="None">
<path d="
M 84.00 51.00 
C 80.42 53.51 71.58 48.49 68.00 51.00
C 68.00 56.67 68.00 62.33 68.00 68.00
C 71.68 67.67 82.62 66.52 85.00 69.00
C 85.47 74.24 85.00 79.74 85.00 85.00
C 90.62 84.49 96.37 85.38 102.00 85.00
C 102.36 79.70 101.52 74.29 102.00 69.00
C 104.39 66.51 115.37 67.67 119.00 68.00
C 119.00 62.33 119.00 56.67 119.00 51.00
C 115.42 48.49 106.58 53.51 103.00 51.00
C 99.25 48.37 103.74 37.91 102.00 34.00
C 100.72 33.10 86.28 33.10 85.00 34.00
C 83.26 37.91 87.75 48.37 84.00 51.00
M 102.00 52.00 
C 104.51 55.58 100.12 63.98 102.00 68.00
C 96.33 68.00 90.67 68.00 85.00 68.00
C 85.00 62.67 85.00 57.33 85.00 52.00
C 86.41 49.99 100.64 50.05 102.00 52.00 Z"/>
</g>
<g fill="#3F4480" fill-opacity="0.02" stroke="None">
<path d="
M 103.00 51.00 
C 101.26 47.09 105.75 36.63 102.00 34.00
C 103.74 37.91 99.25 48.37 103.00 51.00 Z"/>
</g>
<g fill="#213B59" fill-opacity="0.22" stroke="None">
<path d="
M 68.00 69.00 
C 67.96 69.00 68.00 68.00 68.00 68.00
C 68.00 62.33 68.00 56.67 68.00 51.00
C 65.81 52.53 66.12 67.20 68.00 69.00 Z"/>
</g>
<g fill="#1F3B57" fill-opacity="0.32" stroke="None">
<path d="
M 85.00 52.00 
C 90.67 52.00 96.33 52.00 102.00 52.00
C 100.64 50.05 86.41 49.99 85.00 52.00 Z"/>
</g>
<g fill="#213C5D" fill-opacity="0.14" stroke="None">
<path d="
M 119.00 68.00 
C 119.00 68.50 119.00 69.00 119.00 69.00
C 120.81 67.26 121.25 52.58 119.00 51.00
C 119.00 56.67 119.00 62.33 119.00 68.00 Z"/>
</g>
<g fill="#30373D" fill-opacity="0.54" stroke="None">
<path d="
M 143.00 104.00 
C 147.31 100.26 144.39 87.12 145.00 79.00 C 145.61 70.88 144.83 59.43 145.00 51.00
C 143.77 58.78 144.69 69.72 144.00 78.00 C 143.31 86.28 146.64 97.10 143.00 104.00 Z"/>
</g>
<g fill="#000000" fill-opacity="0.00" stroke="None">
<path d="
M 102.00 52.00 
C 96.33 52.00 90.67 52.00 85.00 52.00
C 85.00 57.33 85.00 62.67 85.00 68.00
C 90.67 68.00 96.33 68.00 102.00 68.00
C 100.12 63.98 104.51 55.58 102.00 52.00 Z"/>
</g>
<g fill="#1C3451" fill-opacity="0.47" stroke="None">
<path d="
M 460.00 60.00 
C 460.00 59.96 461.00 60.00 461.00 60.00
C 466.33 60.00 471.67 60.00 477.00 60.00
C 477.50 60.00 478.00 60.00 478.00 60.00
C 476.05 57.97 462.01 57.91 460.00 60.00 Z"/>
</g>
<g fill="#152639" fill-opacity="0.82" stroke="None">
<path d="
M 460.00 76.00 
C 460.00 76.50 460.00 77.00 460.00 77.00
C 460.25 77.25 461.00 77.00 461.00 77.00
C 461.48 71.64 461.49 65.36 461.00 60.00
C 461.00 60.00 460.00 59.96 460.00 60.00
C 459.53 65.23 459.99 70.74 460.00 76.00 Z"/>
</g>
<g fill="#000000" fill-opacity="1.00" stroke="None">
<path d="
M 461.00 77.00 
C 466.33 77.00 471.67 77.00 477.00 77.00
C 477.00 71.41 476.50 65.56 477.00 60.00
C 471.67 60.00 466.33 60.00 461.00 60.00
C 461.49 65.36 461.48 71.64 461.00 77.00 Z"/>
</g>
<g fill="#162A41" fill-opacity="0.75" stroke="None">
<path d="
M 477.00 77.00 
C 477.00 82.33 477.00 87.67 477.00 93.00
C 477.00 93.50 477.00 94.00 477.00 94.00
C 477.00 99.67 477.00 105.33 477.00 111.00
C 479.69 109.12 478.00 97.40 478.00 94.00
C 478.00 88.33 478.00 82.67 478.00 77.00
C 478.00 76.50 478.00 76.00 478.00 76.00
C 478.00 70.74 478.48 65.23 478.00 60.00
C 478.00 60.00 477.50 60.00 477.00 60.00
C 476.50 65.56 477.00 71.41 477.00 77.00 Z"/>
</g>
<g fill="#1D3753" fill-opacity="0.43" stroke="None">
<path d="
M 68.00 69.00 
C 73.24 69.47 78.74 69.00 84.00 69.00
C 84.50 69.00 85.00 69.00 85.00 69.00
C 82.62 66.52 71.68 67.67 68.00 68.00
C 68.00 68.00 67.96 69.00 68.00 69.00 Z"/>
</g>
<g fill="#1E3853" fill-opacity="0.43" stroke="None">
<path d="
M 102.00 69.00 
C 102.00 68.96 103.00 69.00 103.00 69.00
C 108.26 69.00 113.76 69.47 119.00 69.00
C 119.00 69.00 119.00 68.50 119.00 68.00
C 115.37 67.67 104.39 66.51 102.00 69.00 Z"/>
</g>
<g fill="#384B5A" fill-opacity="1.00" stroke="None">
<path d="
M 315.00 68.00 
C 281.00 68.00 247.00 68.00 213.00 68.00
C 213.00 73.67 213.00 79.33 213.00 85.00
C 247.00 85.00 281.00 85.00 315.00 85.00
C 315.00 79.33 315.00 73.67 315.00 68.00 Z"/>
</g>
<g fill="#224558" fill-opacity="0.11" stroke="None">
<path d="
M 85.00 86.00 
C 84.96 86.00 85.00 85.00 85.00 85.00
C 85.00 79.74 85.47 74.24 85.00 69.00
C 85.00 69.00 84.50 69.00 84.00 69.00
C 83.67 72.63 82.51 83.61 85.00 86.00 Z"/>
</g>
<g fill="#404080" fill-opacity="0.02" stroke="None">
<path d="
M 102.00 85.00 
C 104.38 82.62 103.32 72.60 103.00 69.00
C 103.00 69.00 102.00 68.96 102.00 69.00
C 101.52 74.29 102.36 79.70 102.00 85.00 Z"/>
</g>
<g fill="#1E3956" fill-opacity="0.39" stroke="None">
<path d="
M 443.00 77.00 
C 443.00 76.96 444.00 77.00 444.00 77.00
C 449.26 77.00 454.76 77.47 460.00 77.00
C 460.00 77.00 460.00 76.50 460.00 76.00
C 456.37 75.67 445.39 74.51 443.00 77.00 Z"/>
</g>
<g fill="#1E3A56" fill-opacity="0.39" stroke="None">
<path d="
M 478.00 77.00 
C 483.24 77.47 488.74 77.00 494.00 77.00
C 494.50 77.00 495.00 77.00 495.00 77.00
C 492.62 74.52 481.68 75.67 478.00 76.00
C 478.00 76.00 478.00 76.50 478.00 77.00 Z"/>
</g>
<g fill="#122233" fill-opacity="0.87" stroke="None">
<path d="
M 444.00 94.00 
C 443.62 88.37 444.51 82.62 444.00 77.00
C 444.00 77.00 443.00 76.96 443.00 77.00
C 442.72 80.14 441.52 92.27 444.00 94.00 Z"/>
</g>
<g fill="#000000" fill-opacity="1.00" stroke="None">
<path d="
M 444.00 94.00 
C 447.58 96.51 455.98 92.12 460.00 94.00
C 459.51 88.64 459.52 82.36 460.00 77.00
C 454.76 77.47 449.26 77.00 444.00 77.00
C 444.51 82.62 443.62 88.37 444.00 94.00 Z"/>
</g>
<g fill="#192E47" fill-opacity="0.67" stroke="None">
<path d="
M 460.00 94.00 
C 460.00 93.96 461.00 94.00 461.00 94.00
C 461.25 93.75 461.00 93.00 461.00 93.00
C 461.00 87.74 461.47 82.23 461.00 77.00
C 461.00 77.00 460.25 77.25 460.00 77.00
C 459.52 82.36 459.51 88.64 460.00 94.00 Z"/>
</g>
<g fill="#000000" fill-opacity="0.00" stroke="None">
<path d="
M 461.00 93.00 
C 466.04 92.54 471.96 92.54 477.00 93.00
C 477.00 87.67 477.00 82.33 477.00 77.00
C 471.67 77.00 466.33 77.00 461.00 77.00
C 461.47 82.23 461.00 87.74 461.00 93.00 Z"/>
</g>
<g fill="#000000" fill-opacity="1.00" stroke="None">
<path d="
M 478.00 94.00 
C 482.02 92.12 490.42 96.51 494.00 94.00
C 494.38 88.37 493.49 82.62 494.00 77.00
C 488.74 77.00 483.24 77.47 478.00 77.00
C 478.00 82.67 478.00 88.33 478.00 94.00 Z"/>
</g>
<g fill="#15273B" fill-opacity="0.81" stroke="None">
<path d="
M 494.00 94.00 
C 496.47 92.27 495.29 80.19 495.00 77.00
C 495.00 77.00 494.50 77.00 494.00 77.00
C 493.49 82.62 494.38 88.37 494.00 94.00 Z"/>
</g>
<g fill="#1A334F" fill-opacity="0.53" stroke="None">
<path d="
M 85.00 86.00 
C 88.70 86.33 99.52 87.48 102.00 85.00
C 96.37 85.38 90.62 84.49 85.00 85.00
C 85.00 85.00 84.96 86.00 85.00 86.00 Z"/>
</g>
<g fill="#1C3C59" fill-opacity="0.28" stroke="None">
<path d="
M 461.00 94.00 
C 466.05 94.46 471.95 94.46 477.00 94.00
C 477.00 94.00 477.00 93.50 477.00 93.00
C 471.96 92.54 466.04 92.54 461.00 93.00
C 461.00 93.00 461.25 93.75 461.00 94.00 Z"/>
</g>
<g fill="#152639" fill-opacity="0.82" stroke="None">
<path d="
M 461.00 111.00 
C 460.62 105.37 461.51 99.62 461.00 94.00
C 461.00 94.00 460.00 93.96 460.00 94.00
C 459.72 97.14 458.53 109.27 461.00 111.00 Z"/>
</g>
<g fill="#000000" fill-opacity="1.00" stroke="None">
<path d="
M 461.00 111.00 
C 462.20 111.84 475.80 111.84 477.00 111.00
C 477.00 105.33 477.00 99.67 477.00 94.00
C 471.95 94.46 466.05 94.46 461.00 94.00
C 461.51 99.62 460.62 105.37 461.00 111.00 Z"/>
</g>
<g fill="#000001" fill-opacity="0.92" stroke="None">
<path d="
M 392.00 104.00 
C 386.05 103.27 380.78 100.23 375.00 99.00
C 372.84 108.17 368.15 116.60 367.00 126.00
C 372.81 127.23 378.08 130.28 384.00 131.00
C 386.16 121.83 390.85 113.40 392.00 104.00 Z"/>
</g>
<g fill="#FCD480" fill-opacity="1.00" stroke="None">
<path d="
M 315.00 102.00 
C 281.00 102.00 247.00 102.00 213.00 102.00
C 213.00 136.33 213.00 170.67 213.00 205.00
C 247.00 205.00 281.00 205.00 315.00 205.00
C 315.00 170.67 315.00 136.33 315.00 102.00
M 247.00 119.00 
C 247.00 125.00 247.00 131.00 247.00 137.00
C 241.33 137.00 235.67 137.00 230.00 137.00
C 230.00 131.00 230.00 125.00 230.00 119.00
C 235.67 119.00 241.33 119.00 247.00 119.00
M 298.00 136.00 
C 294.49 139.51 285.57 135.45 281.00 137.00
C 281.00 131.00 281.00 125.00 281.00 119.00
C 286.67 119.00 292.33 119.00 298.00 119.00
C 300.25 120.57 299.74 134.26 298.00 136.00
M 265.00 169.00 
C 275.02 164.61 276.55 155.22 289.01 154.01 C 301.46 152.80 298.51 171.97 287.77 173.77 C 277.03 175.57 274.21 189.46 263.00 188.00 C 251.78 186.54 250.66 175.32 239.25 172.75 C 227.85 170.17 228.56 151.05 241.00 154.00 C 253.44 156.95 253.66 165.34 265.00 169.00 Z"/>
</g>
<g fill="#000000" fill-opacity="1.00" stroke="None">
<path d="
M 247.00 119.00 
C 241.33 119.00 235.67 119.00 230.00 119.00
C 230.00 125.00 230.00 131.00 230.00 137.00
C 235.67 137.00 241.33 137.00 247.00 137.00
C 247.00 131.00 247.00 125.00 247.00 119.00 Z"/>
</g>
<g fill="#000000" fill-opacity="1.00" stroke="None">
<path d="
M 298.00 136.00 
C 300.66 132.20 296.00 123.27 298.00 119.00
C 292.33 119.00 286.67 119.00 281.00 119.00
C 281.00 125.00 281.00 131.00 281.00 137.00
C 285.57 135.45 294.49 139.51 298.00 136.00 Z"/>
</g>
<g fill="#8F7F56" fill-opacity="1.00" stroke="None">
<path d="
M 298.00 136.00 
C 299.74 134.26 300.25 120.57 298.00 119.00
C 296.00 123.27 300.66 132.20 298.00 136.00 Z"/>
</g>
<g fill="#427DBE" fill-opacity="1.00" stroke="None">
<path d="
M 157.00 120.00 
C 146.31 116.44 139.85 131.26 150.00 136.00 C 160.15 140.74 166.61 123.20 157.00 120.00 Z"/>
</g>
<g fill="#000000" fill-opacity="0.94" stroke="None">
<path d="
M 19.00 150.00 
C 20.55 152.28 31.76 158.27 34.00 157.00
C 39.17 148.59 45.71 140.75 50.00 132.00
C 44.30 129.71 40.11 123.94 34.00 123.00
C 33.74 130.84 15.32 142.98 19.00 150.00 Z"/>
</g>
<g fill="#1F4B63" fill-opacity="0.25" stroke="None">
<path d="
M 34.00 157.00 
C 31.76 158.27 20.55 152.28 19.00 150.00
C 21.02 153.86 31.33 159.36 34.00 157.00 Z"/>
</g>
<g fill="#000000" fill-opacity="1.00" stroke="None">
<path d="
M 265.00 169.00 
C 253.66 165.34 253.44 156.95 241.00 154.00 C 228.56 151.05 227.85 170.17 239.25 172.75 C 250.66 175.32 251.78 186.54 263.00 188.00 C 274.21 189.46 277.03 175.57 287.77 173.77 C 298.51 171.97 301.46 152.80 289.01 154.01 C 276.55 155.22 275.02 164.61 265.00 169.00 Z"/>
</g>
<g fill="#F3B649" fill-opacity="1.00" stroke="None">
<path d="
M 116.00 173.00 
C 107.48 169.02 88.75 153.29 82.99 167.99 C 77.24 182.69 100.35 186.60 108.00 192.00
C 109.62 185.30 115.08 179.89 116.00 173.00 Z"/>
</g>
<g fill="#F4B749" fill-opacity="1.00" stroke="None">
<path d="
M 421.00 192.00 
C 428.71 186.07 450.95 182.50 444.92 168.08 C 438.89 153.65 420.69 169.50 412.00 173.00
C 414.17 179.64 418.11 185.59 421.00 192.00 Z"/>
</g>
<g fill="#A8BBCB" fill-opacity="1.00" stroke="None">
<path d="
M 196.00 218.00 
C 174.05 207.19 153.17 193.38 131.00 183.00
C 126.44 191.53 118.85 201.44 128.25 206.75 C 137.64 212.07 142.27 218.00 150.75 223.25 C 159.24 228.49 165.19 234.47 173.25 239.75 C 181.32 245.02 187.73 251.18 196.00 256.00
C 196.00 243.33 196.00 230.67 196.00 218.00 Z"/>
</g>
<g fill="#A8BBCB" fill-opacity="1.00" stroke="None">
<path d="
M 333.00 218.00 
C 330.61 222.84 334.06 231.60 333.00 237.00 C 331.94 242.40 332.96 250.32 334.00 255.00
C 341.65 249.53 348.54 244.78 356.25 239.25 C 363.96 233.72 369.98 228.53 378.25 223.25 C 386.52 217.96 390.79 212.25 400.25 207.25 C 409.71 202.24 401.44 190.72 398.00 183.00
C 390.83 185.96 381.82 189.91 375.25 194.25 C 368.68 198.58 360.10 201.55 354.23 206.23 C 348.36 210.91 337.22 212.15 333.00 218.00 Z"/>
</g>
<g fill="#000102" fill-opacity="0.89" stroke="None">
<path d="
M 494.00 216.00 
C 488.33 214.62 483.65 210.38 478.00 209.00
C 474.98 215.02 472.02 220.97 469.00 227.00
C 474.73 229.55 480.05 233.16 486.00 235.00
C 487.62 228.30 493.08 222.89 494.00 216.00 Z"/>
</g>
<g fill="#616D76" fill-opacity="1.00" stroke="None">
<path d="
M 334.00 255.00 
C 332.96 250.32 331.94 242.40 333.00 237.00 C 334.06 231.60 330.61 222.84 333.00 218.00
C 330.14 221.97 332.43 233.10 332.00 238.00 C 331.57 242.90 330.83 255.26 334.00 255.00 Z"/>
</g>
<g fill="#4380C2" fill-opacity="1.00" stroke="None">
<path d="
M 230.00 222.00 
C 224.33 222.00 218.67 222.00 213.00 222.00
C 213.00 251.67 213.00 281.33 213.00 311.00
C 218.97 312.84 224.26 316.44 230.00 319.00
C 230.00 286.67 230.00 254.33 230.00 222.00 Z"/>
</g>
<g fill="#BEBEBE" fill-opacity="1.00" stroke="None">
<path d="
M 281.00 222.00 
C 269.67 222.00 258.33 222.00 247.00 222.00
C 246.47 240.48 247.71 258.47 247.00 277.00 C 246.29 295.53 248.36 313.29 247.00 332.00 C 245.64 350.70 221.72 333.14 213.00 330.00
C 213.00 339.33 213.00 348.67 213.00 358.00
C 247.00 358.00 281.00 358.00 315.00 358.00
C 315.00 348.67 315.00 339.33 315.00 330.00
C 306.00 335.22 281.95 349.97 281.00 331.00 C 280.05 312.03 281.50 294.57 281.00 276.00 C 280.50 257.43 281.38 240.43 281.00 222.00 Z"/>
</g>
<g fill="#427EBF" fill-opacity="1.00" stroke="None">
<path d="
M 315.00 222.00 
C 309.33 222.00 303.67 222.00 298.00 222.00
C 298.00 254.33 298.00 286.67 298.00 319.00
C 303.73 316.45 309.06 312.84 315.00 311.00
C 315.00 281.33 315.00 251.67 315.00 222.00 Z"/>
</g>
<g fill="#1C3754" fill-opacity="0.46" stroke="None">
<path d="
M 62.00 236.00 
C 66.43 232.91 69.62 228.06 74.00 225.00
C 73.77 224.84 74.00 224.00 74.00 224.00
C 71.16 225.18 62.84 232.94 62.00 236.00 Z"/>
</g>
<g fill="#1D3A57" fill-opacity="0.31" stroke="None">
<path d="
M 74.00 225.00 
C 80.33 229.43 84.72 236.61 91.00 241.00
C 88.81 236.51 78.69 225.95 74.00 224.00
C 74.00 224.00 73.77 224.84 74.00 225.00 Z"/>
</g>
<g fill="#000000" fill-opacity="1.00" stroke="None">
<path d="
M 62.00 236.00 
C 66.68 242.15 73.37 246.89 78.00 253.00
C 83.33 251.28 86.18 244.81 91.00 242.00
C 91.00 242.00 91.20 241.40 91.00 241.00
C 84.72 236.61 80.33 229.43 74.00 225.00
C 69.62 228.06 66.43 232.91 62.00 236.00 Z"/>
</g>
<g fill="#203B5B" fill-opacity="0.23" stroke="None">
<path d="
M 91.00 242.00 
C 86.18 244.81 83.33 251.28 78.00 253.00
C 73.37 246.89 66.68 242.15 62.00 236.00
C 65.00 241.55 73.54 249.95 80.00 254.00
C 82.47 249.32 88.65 246.81 91.00 242.00 Z"/>
</g>
<g fill="#22465C" fill-opacity="0.09" stroke="None">
<path d="
M 386.00 270.00 
C 390.43 266.90 393.62 262.06 398.00 259.00
C 397.77 258.84 398.00 258.00 398.00 258.00
C 394.54 259.45 387.67 266.58 386.00 270.00 Z"/>
</g>
<g fill="#1D3552" fill-opacity="0.43" stroke="None">
<path d="
M 398.00 259.00 
C 404.46 263.51 409.54 270.54 415.00 276.00
C 415.64 273.65 401.70 259.54 398.00 258.00
C 398.00 258.00 397.77 258.84 398.00 259.00 Z"/>
</g>
<g fill="#000000" fill-opacity="1.00" stroke="None">
<path d="
M 386.00 270.00 
C 386.00 270.00 385.80 270.60 386.00 271.00
C 392.33 275.43 396.72 282.61 403.00 287.00
C 407.43 283.91 410.60 279.02 415.00 276.00
C 409.54 270.54 404.46 263.51 398.00 259.00
C 393.62 262.06 390.43 266.90 386.00 270.00 Z"/>
</g>
<g fill="#1D3D60" fill-opacity="0.16" stroke="None">
<path d="
M 403.00 288.00 
C 403.18 287.93 403.00 287.00 403.00 287.00
C 396.72 282.61 392.33 275.43 386.00 271.00
C 388.19 275.49 398.32 286.05 403.00 288.00 Z"/>
</g>
<g fill="#1A334D" fill-opacity="0.56" stroke="None">
<path d="
M 403.00 287.00 
C 403.00 287.00 403.18 287.93 403.00 288.00
C 405.84 286.82 414.16 279.06 415.00 276.00
C 410.60 279.02 407.43 283.91 403.00 287.00 Z"/>
</g>
<g fill="#1C3753" fill-opacity="0.46" stroke="None">
<path d="
M 130.00 301.00 
C 130.07 301.18 131.00 301.00 131.00 301.00
C 134.89 295.43 141.49 288.85 147.00 285.00
C 146.77 284.84 147.00 284.00 147.00 284.00
C 142.67 285.81 131.83 296.60 130.00 301.00 Z"/>
</g>
<g fill="#142B3D" fill-opacity="0.78" stroke="None">
<path d="
M 147.00 285.00 
C 151.43 288.10 154.60 292.97 159.00 296.00
C 156.28 292.12 152.22 288.37 149.00 285.00
C 148.68 284.78 147.88 283.07 147.00 284.00
C 147.00 284.00 146.77 284.84 147.00 285.00 Z"/>
</g>
<g fill="#000000" fill-opacity="1.00" stroke="None">
<path d="
M 131.00 301.00 
C 134.10 305.43 138.97 308.60 142.00 313.00
C 147.51 307.49 154.52 302.41 159.00 296.00
C 154.60 292.97 151.43 288.10 147.00 285.00
C 141.49 288.85 134.89 295.43 131.00 301.00 Z"/>
</g>
<g fill="#404080" fill-opacity="0.02" stroke="None">
<path d="
M 159.00 296.00 
C 159.16 295.77 160.00 296.00 160.00 296.00
C 158.45 292.27 152.32 287.28 149.00 285.00
C 152.22 288.37 156.28 292.12 159.00 296.00 Z"/>
</g>
<g fill="#1D3E59" fill-opacity="0.17" stroke="None">
<path d="
M 142.00 313.00 
C 144.35 313.65 158.45 299.70 160.00 296.00
C 160.00 296.00 159.16 295.77 159.00 296.00
C 154.52 302.41 147.51 307.49 142.00 313.00 Z"/>
</g>
<g fill="#16293F" fill-opacity="0.77" stroke="None">
<path d="
M 142.00 313.00 
C 138.97 308.60 134.10 305.43 131.00 301.00
C 131.00 301.00 130.07 301.18 130.00 301.00
C 131.18 303.84 138.94 312.16 142.00 313.00 Z"/>
</g>
<g fill="#836227" fill-opacity="1.00" stroke="None">
<path d="
M 256.00 375.00 
C 245.69 375.53 237.99 371.46 238.00 384.00 C 238.01 396.54 245.68 392.49 256.00 393.00
C 256.00 387.00 256.00 381.00 256.00 375.00
M 255.00 376.00 
C 255.00 381.33 255.00 386.67 255.00 392.00
C 249.67 392.00 244.33 392.00 239.00 392.00
C 239.00 386.67 239.00 381.33 239.00 376.00
C 244.33 376.00 249.67 376.00 255.00 376.00 Z"/>
</g>
<g fill="#78541B" fill-opacity="1.00" stroke="None">
<path d="
M 273.00 376.00 
C 278.67 376.00 284.33 376.00 290.00 376.00
C 288.64 374.05 274.41 373.99 273.00 376.00 Z"/>
</g>
<g fill="#F8BB4B" fill-opacity="1.00" stroke="None">
<path d="
M 255.00 376.00 
C 249.67 376.00 244.33 376.00 239.00 376.00
C 239.00 381.33 239.00 386.67 239.00 392.00
C 244.33 392.00 249.67 392.00 255.00 392.00
C 255.00 386.67 255.00 381.33 255.00 376.00 Z"/>
</g>
<g fill="#E19F34" fill-opacity="1.00" stroke="None">
<path d="
M 273.00 392.00 
C 278.67 392.00 284.33 392.00 290.00 392.00
C 290.84 390.80 290.84 377.20 290.00 376.00
C 284.33 376.00 278.67 376.00 273.00 376.00
C 272.16 377.20 272.16 390.80 273.00 392.00 Z"/>
</g>
<g fill="#78541B" fill-opacity="1.00" stroke="None">
<path d="
M 290.00 392.00 
C 284.33 392.00 278.67 392.00 273.00 392.00
C 274.36 393.95 288.59 394.01 290.00 392.00 Z"/>
</g>
<g fill="#525F62" fill-opacity="1.00" stroke="None">
<path d="
M 85.00 410.00 
C 113.33 410.00 141.67 410.00 170.00 410.00
C 167.19 405.99 154.32 409.97 149.00 409.00 C 143.68 408.03 132.82 409.05 127.00 409.00 C 121.18 408.95 110.30 408.17 105.00 409.00 C 99.70 409.83 87.74 406.09 85.00 410.00 Z"/>
</g>
<g fill="#515D60" fill-opacity="1.00" stroke="None">
<path d="
M 290.00 410.00 
C 295.67 410.00 301.33 410.00 307.00 410.00
C 305.64 408.05 291.41 407.99 290.00 410.00 Z"/>
</g>
<g fill="#4D5A5D" fill-opacity="1.00" stroke="None">
<path d="
M 358.00 410.00 
C 386.33 410.00 414.67 410.00 443.00 410.00
C 443.00 438.34 443.00 466.66 443.00 495.00
C 447.01 492.19 443.06 479.37 444.00 474.00 C 444.94 468.63 444.02 457.94 444.00 452.00 C 443.98 446.06 445.01 435.57 444.00 430.00 C 442.99 424.43 447.23 413.46 443.22 409.78 C 439.21 406.10 427.69 409.96 422.00 409.00 C 416.31 408.04 405.98 409.04 400.00 409.00 C 394.02 408.96 383.38 408.15 378.00 409.00 C 372.62 409.85 360.76 406.05 358.00 410.00 Z"/>
</g>
<g fill="#414951" fill-opacity="1.00" stroke="None">
<path d="
M 461.00 495.00 
C 461.00 466.67 461.00 438.33 461.00 410.00
C 466.33 410.00 471.67 410.00 477.00 410.00
C 477.00 438.34 477.00 466.66 477.00 495.00
C 481.04 492.17 476.87 479.19 478.00 474.00 C 479.13 468.81 477.70 458.69 478.00 453.00 C 478.30 447.31 478.35 437.31 478.00 432.00 C 477.65 426.69 479.24 414.06 477.74 410.26 C 476.24 406.45 460.82 406.94 460.00 411.00 C 459.18 415.06 460.16 426.45 460.00 432.00 C 459.84 437.55 459.69 448.16 460.00 454.00 C 460.31 459.84 458.93 469.77 460.00 475.00 C 461.07 480.23 457.00 492.20 461.00 495.00 Z"/>
</g>
<g fill="#7B8B9A" fill-opacity="1.00" stroke="None">
<path d="
M 68.00 410.00 
C 62.33 410.00 56.67 410.00 51.00 410.00
C 51.00 438.33 51.00 466.67 51.00 495.00
C 56.67 495.00 62.33 495.00 68.00 495.00
C 68.00 466.66 68.00 438.34 68.00 410.00 Z"/>
</g>
<g fill="#CCEDF5" fill-opacity="1.00" stroke="None">
<path d="
M 170.00 410.00 
C 141.67 410.00 113.33 410.00 85.00 410.00
C 85.00 438.33 85.00 466.67 85.00 495.00
C 113.33 495.00 141.67 495.00 170.00 495.00
C 169.74 487.99 170.35 479.90 170.00 473.00 C 169.65 466.10 170.69 458.58 170.00 452.00 C 169.31 445.42 171.50 436.99 170.00 431.00 C 168.50 425.01 173.30 414.72 170.00 410.00 Z"/>
</g>
<g fill="#7B8A99" fill-opacity="1.00" stroke="None">
<path d="
M 273.00 410.00 
C 244.33 410.00 215.67 410.00 187.00 410.00
C 187.00 438.33 187.00 466.67 187.00 495.00
C 215.67 495.00 244.33 495.00 273.00 495.00
C 273.00 466.66 273.00 438.34 273.00 410.00
M 237.00 427.00 
C 268.29 433.48 255.88 486.33 223.93 477.07 C 191.97 467.81 203.76 420.12 237.00 427.00 Z"/>
</g>
<g fill="#CAEBF3" fill-opacity="1.00" stroke="None">
<path d="
M 307.00 410.00 
C 301.33 410.00 295.67 410.00 290.00 410.00
C 290.00 438.33 290.00 466.67 290.00 495.00
C 295.67 495.00 301.33 495.00 307.00 495.00
C 306.74 487.99 307.35 479.90 307.00 473.00 C 306.65 466.10 307.69 458.58 307.00 452.00 C 306.31 445.42 308.50 436.99 307.00 431.00 C 305.50 425.01 310.30 414.72 307.00 410.00 Z"/>
</g>
<g fill="#7C8C9B" fill-opacity="1.00" stroke="None">
<path d="
M 341.00 410.00 
C 335.33 410.00 329.67 410.00 324.00 410.00
C 324.00 438.33 324.00 466.67 324.00 495.00
C 329.67 495.00 335.33 495.00 341.00 495.00
C 341.00 466.66 341.00 438.34 341.00 410.00 Z"/>
</g>
<g fill="#CCEDF5" fill-opacity="1.00" stroke="None">
<path d="
M 443.00 495.00 
C 443.00 466.66 443.00 438.34 443.00 410.00
C 414.67 410.00 386.33 410.00 358.00 410.00
C 358.00 438.33 358.00 466.67 358.00 495.00
C 365.01 494.74 373.10 495.35 380.00 495.00 C 386.90 494.65 394.42 495.69 401.00 495.00 C 407.58 494.31 416.01 496.50 422.00 495.00 C 427.99 493.50 438.28 498.30 443.00 495.00 Z"/>
</g>
<g fill="#7C8C9B" fill-opacity="1.00" stroke="None">
<path d="
M 461.00 495.00 
C 462.20 495.84 475.80 495.84 477.00 495.00
C 477.00 466.66 477.00 438.34 477.00 410.00
C 471.67 410.00 466.33 410.00 461.00 410.00
C 461.00 438.33 461.00 466.67 461.00 495.00 Z"/>
</g>
<g fill="#000000" fill-opacity="1.00" stroke="None">
<path d="
M 237.00 427.00 
C 203.76 420.12 191.97 467.81 223.93 477.07 C 255.88 486.33 268.29 433.48 237.00 427.00
M 234.00 444.00 
C 243.10 447.36 236.62 465.01 226.93 460.07 C 217.24 455.14 223.16 440.00 234.00 444.00 Z"/>
</g>
<g fill="#F2B649" fill-opacity="1.00" stroke="None">
<path d="
M 234.00 444.00 
C 223.16 440.00 217.24 455.14 226.93 460.07 C 236.62 465.01 243.10 447.36 234.00 444.00 Z"/>
</g>
</svg>